<svg width="240" height="83" viewBox="0 0 240 83" fill="none" xmlns="http://www.w3.org/2000/svg">
<path d="M73.0176 56.4302L75.3132 55.8564V31.3728L73.0176 30.7989V30.2251H83.3468C87.2232 30.2251 90.0671 30.8499 91.8778 32.0996C93.7142 33.3238 94.6321 34.9305 94.6321 36.9198C94.6321 38.2971 94.2367 39.4065 93.4462 40.2479C92.6558 41.0897 91.6484 41.7145 90.4239 42.1226C89.1234 42.5817 87.7206 42.8239 86.2158 42.8493V43.0409C88.0778 43.1173 89.6972 43.3977 91.0746 43.8823C92.477 44.3414 93.6374 45.0557 94.5556 46.0246C95.4993 46.9938 95.9712 48.2309 95.9712 49.7354C95.9712 52.0055 95.0402 53.7906 93.1783 55.0915C91.3167 56.3665 88.2944 57.004 84.1117 57.004H73.0176V56.4302ZM83.3468 42.467C84.1886 42.467 84.9662 42.2373 85.6802 41.7782C86.4201 41.2936 87.0066 40.6306 87.4402 39.7892C87.8993 38.9219 88.1287 37.9655 88.1287 36.9198C88.1287 35.7977 87.8993 34.803 87.4402 33.9359C87.0066 33.0688 86.4201 32.3929 85.6802 31.9084C84.9662 31.4238 84.1886 31.1815 83.3468 31.1815H81.6254V42.467H83.3468ZM84.1117 56.0476C85.693 56.0476 86.9811 55.4865 87.9758 54.3644C88.9705 53.2423 89.4675 51.6993 89.4675 49.7354C89.4675 47.7718 88.9705 46.2288 87.9758 45.1067C86.9811 43.9846 85.693 43.4232 84.1117 43.4232H81.6254V56.0476H84.1117Z" fill="#2B1105"/>
<path d="M96.7244 56.4302L99.0199 55.8564V31.3728L96.7244 30.7989V30.2251H101.698C103.993 30.2251 105.141 31.3728 105.141 33.6681V55.8564L107.436 56.4302V57.004H96.7244V56.4302Z" fill="#2B1105"/>
<path d="M117.95 57.5776C114.788 57.5776 112.301 56.6853 110.491 54.8998C108.705 53.0892 107.813 50.6024 107.813 47.4399C107.813 44.2775 108.705 41.8035 110.491 40.0184C112.301 38.2077 114.788 37.3022 117.95 37.3022C121.113 37.3022 123.587 38.2077 125.372 40.0184C127.183 41.8035 128.088 44.2775 128.088 47.4399C128.088 50.6024 127.183 53.0892 125.372 54.8998C123.587 56.6853 121.113 57.5776 117.95 57.5776ZM117.95 56.8127C118.971 56.8127 119.825 56.0984 120.514 54.6704C121.228 53.2421 121.585 50.8318 121.585 47.4399C121.585 44.0481 121.228 41.6378 120.514 40.2095C119.825 38.7815 118.971 38.0672 117.95 38.0672C116.93 38.0672 116.063 38.7815 115.349 40.2095C114.66 41.6378 114.316 44.0481 114.316 47.4399C114.316 50.8318 114.66 53.2421 115.349 54.6704C116.063 56.0984 116.93 56.8127 117.95 56.8127Z" fill="#2B1105"/>
<path d="M138.239 57.5776C136.658 57.5776 135.243 57.2336 133.993 56.5447C133.381 56.2134 132.884 55.8562 132.501 55.4736C132.093 56.0346 131.647 56.4683 131.162 56.7745C130.932 56.9274 130.678 57.0676 130.397 57.1953H129.44V50.6916H130.971C131.302 51.7628 131.787 52.7575 132.424 53.6757C133.776 55.6396 135.46 56.6212 137.474 56.6212C138.546 56.6212 139.349 56.3663 139.884 55.8562C140.445 55.3207 140.726 54.5557 140.726 53.561C140.726 52.7192 140.343 52.018 139.578 51.4569C138.839 50.8704 137.666 50.1561 136.059 49.3146C134.681 48.6258 133.559 48.0138 132.692 47.4782C131.851 46.9171 131.124 46.2286 130.512 45.4123C129.925 44.5709 129.632 43.589 129.632 42.4668C129.632 40.9366 130.282 39.6994 131.583 38.7561C132.909 37.7868 134.937 37.3022 137.666 37.3022C139.017 37.3022 140.267 37.6594 141.415 38.3734C141.976 38.7051 142.46 39.0491 142.868 39.4063C143.2 38.9472 143.646 38.5136 144.207 38.1054C144.641 37.8506 144.896 37.7104 144.972 37.6849H145.929V44.1883H144.399C144.016 43.0916 143.544 42.1097 142.983 41.2424C141.708 39.2534 140.191 38.2587 138.431 38.2587C137.742 38.2587 137.155 38.5136 136.671 39.0237C136.186 39.5338 135.944 40.1713 135.944 40.9366C135.944 41.9058 136.352 42.7217 137.168 43.3847C137.984 44.0226 139.221 44.7621 140.879 45.6038C142.231 46.2923 143.302 46.9044 144.092 47.4399C144.909 47.95 145.597 48.5876 146.158 49.3529C146.745 50.1178 147.038 51.0106 147.038 52.0307C147.038 55.7288 144.105 57.5776 138.239 57.5776Z" fill="#2B1105"/>
<path d="M156.986 57.5776C155.405 57.5776 153.989 57.2336 152.74 56.5447C152.127 56.2134 151.63 55.8562 151.248 55.4736C150.84 56.0346 150.393 56.4683 149.909 56.7745C149.679 56.9274 149.424 57.0676 149.144 57.1953H148.187V50.6916H149.718C150.049 51.7628 150.533 52.7575 151.171 53.6757C152.523 55.6396 154.206 56.6212 156.221 56.6212C157.292 56.6212 158.096 56.3663 158.631 55.8562C159.192 55.3207 159.473 54.5557 159.473 53.561C159.473 52.7192 159.09 52.018 158.325 51.4569C157.585 50.8704 156.412 50.1561 154.806 49.3146C153.428 48.6258 152.306 48.0138 151.439 47.4782C150.598 46.9171 149.87 46.2286 149.258 45.4123C148.672 44.5709 148.378 43.589 148.378 42.4668C148.378 40.9366 149.029 39.6994 150.33 38.7561C151.656 37.7868 153.683 37.3022 156.412 37.3022C157.764 37.3022 159.013 37.6594 160.161 38.3734C160.722 38.7051 161.207 39.0491 161.615 39.4063C161.947 38.9472 162.393 38.5136 162.954 38.1054C163.388 37.8506 163.642 37.7104 163.719 37.6849H164.675V44.1883H163.145C162.763 43.0916 162.291 42.1097 161.73 41.2424C160.455 39.2534 158.937 38.2587 157.177 38.2587C156.489 38.2587 155.902 38.5136 155.418 39.0237C154.933 39.5338 154.691 40.1713 154.691 40.9366C154.691 41.9058 155.099 42.7217 155.915 43.3847C156.731 44.0226 157.968 44.7621 159.626 45.6038C160.977 46.2923 162.048 46.9044 162.839 47.4399C163.655 47.95 164.344 48.5876 164.905 49.3529C165.492 50.1178 165.785 51.0106 165.785 52.0307C165.785 55.7288 162.852 57.5776 156.986 57.5776Z" fill="#2B1105"/>
<path d="M176.88 57.5776C173.718 57.5776 171.232 56.6853 169.421 54.8998C167.635 53.0892 166.743 50.6024 166.743 47.4399C166.743 44.2775 167.635 41.8035 169.421 40.0184C171.232 38.2077 173.718 37.3022 176.88 37.3022C180.043 37.3022 182.517 38.2077 184.302 40.0184C186.113 41.8035 187.018 44.2775 187.018 47.4399C187.018 50.6024 186.113 53.0892 184.302 54.8998C182.517 56.6853 180.043 57.5776 176.88 57.5776ZM176.88 56.8127C177.901 56.8127 178.755 56.0984 179.444 54.6704C180.158 53.2421 180.515 50.8318 180.515 47.4399C180.515 44.0481 180.158 41.6378 179.444 40.2095C178.755 38.7815 177.901 38.0672 176.88 38.0672C175.861 38.0672 174.993 38.7815 174.279 40.2095C173.59 41.6378 173.246 44.0481 173.246 47.4399C173.246 50.8318 173.59 53.2421 174.279 54.6704C174.993 56.0984 175.861 56.8127 176.88 56.8127Z" fill="#2B1105"/>
<path d="M188.179 56.43L190.475 55.8562V39.0237L188.179 38.4499V37.8761H191.622C193.127 37.8761 194.313 38.3607 195.18 39.3299C195.512 39.7122 195.792 40.184 196.022 40.7451C196.404 40.0311 196.812 39.4573 197.246 39.0237C198.394 37.8761 199.707 37.3022 201.186 37.3022C202.665 37.3022 203.966 37.6339 205.088 38.2969C206.211 38.9345 207.078 39.8145 207.69 40.9366C208.072 40.1968 208.48 39.5975 208.914 39.1384C210.087 37.9143 211.401 37.3022 212.854 37.3022C214.206 37.3022 215.417 37.5826 216.488 38.1437C217.585 38.7051 218.427 39.47 219.013 40.4392C219.625 41.4084 219.932 42.4668 219.932 43.6145V55.8562L222.227 56.43V57.0038H217.254C214.958 57.0038 213.811 55.8562 213.811 53.561V43.6145C213.811 41.9568 213.556 40.7196 213.046 39.9037C212.536 39.0619 211.962 38.641 211.324 38.641C210.584 38.641 209.832 39.1511 209.067 40.1713C208.761 40.6559 208.493 41.166 208.264 41.7015V55.8562L210.559 56.43V57.0038H199.847V56.43L202.143 55.8562V43.6145C202.143 41.9568 201.888 40.7196 201.378 39.9037C200.868 39.0619 200.294 38.641 199.656 38.641C198.916 38.641 198.164 39.1511 197.399 40.1713C197.093 40.6559 196.825 41.166 196.596 41.7015V55.8562L198.891 56.43V57.0038H188.179V56.43Z" fill="#2B1105"/>
<path fill-rule="evenodd" clip-rule="evenodd" d="M41.8794 64.3086C41.6327 64.3571 41.3767 64.3733 41.1173 64.3535C33.1039 63.7454 25.5191 59.3192 21.1976 51.8342C16.876 44.3489 16.8352 35.5669 20.3155 28.323C20.8208 27.2713 21.9161 26.6389 23.0795 26.7272C26.0658 26.9538 28.9925 27.7106 31.713 28.9584C33.7658 24.9557 36.8029 21.5411 40.5049 19.0341C41.4709 18.3799 42.7346 18.3799 43.7006 19.0341C47.3523 21.5071 50.3569 24.8632 52.4082 28.7957C55.0256 27.6447 57.8252 26.9438 60.6794 26.7272C61.8429 26.6389 62.9382 27.2713 63.4433 28.323C66.9236 35.5669 66.8829 44.3489 62.5615 51.8342C58.2398 59.3192 50.655 63.7454 42.6415 64.3535C42.3821 64.3733 42.1261 64.3571 41.8794 64.3086ZM47.7506 59.7709C52.5541 58.1372 56.8026 54.8222 59.536 50.0877C63.1746 43.7854 63.2932 36.4158 60.4883 30.2497C58.1852 30.4732 55.9307 31.0622 53.816 31.9923C54.8475 34.8301 55.4104 37.893 55.4104 41.0877C55.4104 48.368 52.4872 54.9656 47.7506 59.7709ZM49.3155 30.42C47.6019 27.1301 45.1191 24.3029 42.1028 22.1759C39.0217 24.3485 36.4975 27.2515 34.7808 30.632C37.513 32.3792 39.9403 34.6776 41.8794 37.4781C43.8982 34.5629 46.4458 32.1917 49.3155 30.42ZM43.8585 40.8661C45.6139 37.8721 47.9778 35.4528 50.7042 33.6756C51.4911 36.0027 51.9173 38.4955 51.9173 41.0877C51.9173 47.0721 49.6454 52.5266 45.9106 56.6353C46.9212 51.4452 46.3098 45.9174 43.8585 40.8661ZM39.9003 40.8661C38.2242 38.0066 35.9923 35.6716 33.4203 33.9193C32.6852 36.1762 32.2881 38.5857 32.2881 41.0877C32.2881 46.7652 34.3329 51.9659 37.7318 55.9925C36.8914 50.9907 37.5498 45.7096 39.9003 40.8661ZM41.8794 58.3426C43.1909 54.1723 43.2447 49.6233 41.8794 45.3107C40.5141 49.6233 40.5683 54.1723 41.8794 58.3426ZM24.2228 50.0877C27.0805 55.0371 31.594 58.4356 36.6663 59.9833C31.8052 55.161 28.7949 48.4756 28.7949 41.0877C28.7949 37.9581 29.3351 34.9547 30.3272 32.1656C28.1019 31.1352 25.7138 30.4867 23.2706 30.2497C20.4657 36.4158 20.5842 43.7854 24.2228 50.0877Z" fill="#2B1105"/>
</svg>
