<svg width="241" height="271" viewBox="0 0 241 271" fill="none" xmlns="http://www.w3.org/2000/svg">
<path fill-rule="evenodd" clip-rule="evenodd" d="M126.592 14.8705C126.905 14.1894 126.302 13.4613 126.091 12.8506C125.479 10.7958 124.75 8.77785 123.906 6.80673C124.392 6.32917 124.525 8.11416 124.916 8.31771C125.621 10.2984 126.631 11.9816 127.265 14.0328C127.406 11.872 126.224 9.58599 125.926 7.30778C126.424 7.97357 126.82 8.70973 127.101 9.49204C128.024 11.5667 129.042 13.9075 129.958 16.2171C129.871 15.128 129.645 14.0545 129.285 13.0229C128.502 9.66428 127.766 6.23522 127.101 2.61045C128.032 5.00609 128.729 7.59745 129.449 10.1653C129.715 11.1126 129.997 11.872 130.287 13.0229C130.577 14.1737 131.07 16.2171 131.634 17.7202C131.704 14.1189 131.14 8.81093 131.634 4.77905C131.994 5.20964 131.915 6.07082 132.142 6.6345C132.503 5.53062 132.338 3.76129 132.471 2.09374C132.471 1.62401 132.393 0.723684 132.98 0.582764C132.995 1.88807 133.12 3.18977 133.356 4.47372C133.661 3.91185 133.779 3.26739 133.693 2.63393C134.313 6.46606 134.648 10.339 134.695 14.2207C134.804 16.5694 134.969 18.8711 134.867 21.2667C135.29 21.2667 135.337 20.2724 135.368 19.928C135.501 18.6675 135.462 17.5793 135.705 16.3971C136.033 14.8313 136.425 12.9759 136.879 11.3553C137.333 9.73474 137.826 8.22376 138.39 6.65798C138.554 6.19608 138.5 5.47582 139.063 5.31141C139.063 6.41529 138.774 7.14337 138.899 8.33337C138.821 8.6935 139.134 8.65435 139.4 8.67001C139.102 10.2358 139.282 12.2478 139.063 13.8762C139.682 13.751 139.666 12.9994 139.909 12.5375C140.151 12.0756 140.559 11.7076 140.582 11.1909C140.801 10.9874 140.84 11.1283 141.083 11.1909C142.132 8.84225 143.51 6.79107 144.614 4.46589C144.739 4.58333 145.146 5.17832 145.115 4.46589C145.796 4.41892 145.201 4.81819 145.279 5.13918C144.684 7.11989 144.246 9.26501 143.768 11.3553C143.917 11.6763 143.87 11.1753 144.105 11.1909C144.218 11.0458 144.276 10.8657 144.269 10.682C144.669 10.6351 144.645 10.1653 144.943 10.0166C145.286 9.47539 145.682 8.96929 146.125 8.5056C146.908 7.41739 147.691 6.337 148.474 5.31141C148.677 5.6872 148.286 6.0943 148.137 6.48575C147.691 7.65225 147.143 9.11626 146.626 10.3532C147.103 10.502 147.276 9.78171 147.636 9.34329C147.996 8.90488 148.364 8.34902 148.81 8.16896C147.808 10.4707 146.963 12.9211 145.788 15.0506C145.788 15.6456 146.344 14.6983 146.289 15.2228C145.663 16.8355 144.99 18.4013 144.269 19.9201C145.287 19.4191 145.835 18.4326 146.454 17.5715C147.29 16.8962 148.025 16.1054 148.638 15.2228C150.427 13.7781 152.112 12.2084 153.68 10.5255C154.063 10.7838 153.476 11.1753 153.343 11.3631C152.897 12.0521 152.137 12.9289 151.668 13.7118C152.31 13.8449 153.038 12.6158 153.68 12.2008C154.126 12.4983 153.288 12.9054 153.179 13.2029C152.396 14.2207 151.676 15.2854 150.83 16.2327C150.947 16.6007 151.394 15.9117 151.503 15.7238C151.903 15.6769 151.816 15.1445 152.341 15.2228C153.192 14.1758 154.198 13.265 155.324 12.5218C155.574 11.8799 156.357 11.7389 156.663 11.1753C156.835 11.5197 155.88 12.1695 155.488 12.5218C155.003 13.0094 154.556 13.5328 154.149 14.0876C155.155 13.4347 156.107 12.7044 156.999 11.9033C157.195 12.0834 156.647 12.5845 156.326 12.9054C154.298 14.9879 151.629 17.3366 149.609 19.6305C150 19.6853 150.345 19.333 150.619 19.1216C150.893 18.9102 151.245 18.5736 151.629 18.2839C152.098 17.9586 152.545 17.603 152.967 17.2192C153.116 17.0861 153.335 17.0234 153.476 16.8825C153.617 16.7416 154.439 16.311 154.815 16.0448C155.861 15.368 156.872 14.639 157.845 13.8606C158.166 14.0328 157.398 14.526 157.171 14.7061C154.878 16.6633 152.388 18.4326 150.282 20.5856C148.937 21.6348 147.699 22.8149 146.587 24.1086C145.325 25.2666 144.198 26.564 143.228 27.9761C143.659 28.2109 144.011 27.6003 144.403 27.3028C144.794 27.0053 145.318 26.7626 145.749 26.4651C145.89 26.3633 145.96 26.2146 146.086 26.1284C146.211 26.0423 146.43 26.0658 146.587 25.9562C146.743 25.8466 146.782 25.5491 146.923 25.4552C147.064 25.3612 147.276 25.3925 147.424 25.2829C150.18 23.2317 153.75 21.1336 156.819 19.239C156.827 19.2006 156.849 19.1661 156.879 19.1414C156.91 19.1168 156.948 19.1033 156.987 19.1033C157.027 19.1033 157.065 19.1168 157.096 19.1414C157.126 19.1661 157.147 19.2006 157.156 19.239C156.882 19.192 156.866 19.3956 156.647 19.4034C156.385 19.6485 156.105 19.8736 155.809 20.0767C155.206 20.476 154.635 20.8204 153.962 21.251C153.288 21.6816 152.787 21.9713 152.114 22.4332C150.235 23.7171 147.886 25.2046 145.898 26.6295C144.755 27.4515 143.432 28.0857 142.704 29.3148C143.473 29.0046 144.205 28.6108 144.888 28.1405C146.892 27.0366 149.397 26.238 151.613 25.1185C154.337 23.4823 157.618 22.3862 160.514 20.9144C160.718 21.3293 160.099 21.3606 159.677 21.5877C157.148 22.9734 153.711 24.5 151.441 26.285C152.175 26.1863 152.872 25.8976 153.461 25.4473C155.95 24.7975 158.025 23.7406 160.507 23.0987C157.712 24.5627 154.674 25.7761 151.942 27.3028C152.114 27.522 153.03 27.0601 153.453 26.9661C155.191 26.6921 156.522 26.0032 158.322 25.7918C155.645 27.1384 152.842 28.2266 149.922 29.487C149.483 29.6749 149.014 29.9724 148.575 30.1603C148.137 30.3482 147.542 30.45 147.064 30.6614C146.164 31.0606 145.272 31.6165 144.379 32.0079C143.487 32.3994 142.469 32.736 141.521 33.1823C140.574 33.6285 139.697 34.0669 138.836 34.5288C137.985 34.9179 137.194 35.4267 136.488 36.0398C137.385 35.8784 138.241 35.5346 139.001 35.0299C139.76 34.6996 140.491 34.3068 141.185 33.8556C144.042 33.1275 146.72 32.2193 150.094 32.0079C149.914 32.4385 149.092 32.2428 148.912 32.6812C152.49 32.3289 155.48 31.4051 159.332 31.3347C154.987 32.0784 150.72 32.7517 146.728 33.6833C142.735 34.615 139.243 36.2042 135.814 37.5508C138.21 37.7152 140.637 36.948 143.032 36.7053C143.533 36.6583 143.909 36.7679 144.379 36.7053C145.671 36.5487 146.923 36.1416 148.239 36.0398C148.661 36.0398 149.147 36.0398 149.585 36.0398C152.254 35.6413 154.951 35.4711 157.649 35.5309H158.322C158.51 35.5309 158.416 35.7032 158.322 35.7032C157.539 35.6171 157.915 36.0007 158.487 35.8676C158.487 36.4704 157.469 36.1886 156.811 36.2042C154.979 36.259 153.171 36.3921 151.096 36.3765C151.096 36.8462 151.879 36.807 152.271 36.8775C152.834 36.9715 153.406 36.8149 153.789 37.0419H154.627C155.042 37.0419 154.909 37.2533 154.627 37.2141C148.38 36.9168 142.119 37.3662 135.979 38.5529C138.601 38.7643 141.842 38.2319 145.217 38.3885C146.743 38.4589 148.309 38.6312 149.757 38.7251C151.501 38.7939 153.239 38.9612 154.964 39.2262C153.249 39.8916 149.687 38.9287 146.563 39.0618C147.371 39.3643 148.222 39.5336 149.084 39.5628C145.953 39.7351 141.208 39.3123 137.826 39.7351C138.423 39.9327 139.045 40.046 139.674 40.0717C140.151 40.0717 140.065 40.5727 140.519 40.5727C140.973 40.5727 141.028 40.9485 141.521 40.9094C141.052 41.1521 139.956 40.5962 139.509 40.2361C139.275 40.3595 139.015 40.424 138.75 40.424C138.485 40.424 138.225 40.3595 137.991 40.2361C138.132 41.019 139.556 40.5884 139.509 41.5827C138.981 41.4123 138.472 41.1866 137.991 40.9094C137.948 40.8636 137.897 40.8271 137.839 40.8022C137.782 40.7772 137.72 40.7643 137.658 40.7643C137.595 40.7643 137.534 40.7772 137.476 40.8022C137.419 40.8271 137.368 40.8636 137.325 40.9094C137.443 40.4553 136.973 40.5806 136.816 40.4083H135.305C134.914 40.5727 135.157 41.3713 134.804 41.5827C135.47 42.2638 136.574 42.4125 137.49 42.757C138.368 43.1427 139.267 43.4799 140.183 43.7669C140.042 42.984 139.048 42.984 138.5 42.5926C137.905 42.2654 137.288 41.9828 136.652 41.7471C137.02 41.4966 137.435 41.8019 137.826 41.9193C138.406 42.0932 138.97 42.3185 139.509 42.5926C139.979 42.8275 140.629 42.9997 141.185 43.2581C141.897 43.5947 142.531 44.0409 143.205 44.4402C143.878 44.8395 144.692 44.9726 145.052 45.6146C149.069 46.9141 152.427 48.8792 155.974 50.6485C155.089 50.766 154.408 50.03 153.625 49.6464C151.449 48.5504 148.755 47.423 146.399 46.2878C146.086 46.5618 147.025 47.0003 147.244 47.2899C147.516 47.3234 147.777 47.4165 148.008 47.5627C148.24 47.7089 148.436 47.9045 148.583 48.1355C149.46 48.6372 150.302 49.1969 151.104 49.8108C150.681 49.9518 149.679 49.2237 149.256 48.8009C148.364 48.6913 148.051 48.018 147.244 47.7988C143.27 45.545 139.111 43.6331 134.812 42.0837C134.311 42.6317 135.415 42.5926 135.65 42.9214C136.245 42.9214 136.433 43.4068 136.996 43.4303C137.866 43.8934 138.769 44.2912 139.697 44.6203C144.752 47.0726 149.587 49.9538 154.149 53.2321C153.836 53.5296 153.226 52.7075 152.803 52.5666C152.325 52.312 151.874 52.0104 151.456 51.6663C150.446 51.1652 149.538 50.5624 148.599 49.9909C149.045 50.946 150.259 51.1339 150.783 52.0029C151.603 52.5103 152.388 53.0727 153.132 53.6861C152.717 53.8897 152.435 53.3808 152.122 53.1773C151.135 52.5588 149.773 51.7133 148.763 50.993C147.197 50.0692 145.694 49.1376 144.222 48.1433C141.169 46.327 138.022 44.5968 134.828 42.9292C134.256 43.1484 134.507 44.1819 134.154 44.6125C129.794 63.1043 125.308 81.4631 119.875 98.8745C113.878 116.463 109.791 135.957 107.615 157.356C108.21 156.879 108.076 155.704 108.288 154.671C108.468 153.763 108.773 152.902 108.953 151.986C109.337 150.083 109.454 148.071 110.128 146.443C110.941 146.399 111.752 146.572 112.476 146.944C112.594 149.418 111.216 152.549 111.639 155.344C112.194 156.26 113.651 156.526 114.997 156.182C113.627 161.138 111.983 165.827 110.456 170.634C111.02 176.263 111.506 182.229 112.304 187.936C112.468 189.102 112.508 190.285 112.649 191.459C112.789 192.633 113.071 193.706 113.15 194.825C113.508 200.277 113.168 205.752 112.14 211.117C110.887 217.333 109.791 224.426 108.945 230.94C109.54 233.148 110.973 234.51 111.803 236.483C113.204 235.144 113.987 233.179 114.997 231.441C115.616 230.721 115.835 229.594 116.336 228.756C116.579 227.652 117.228 226.963 117.346 225.734C118.246 224.058 118.591 222.187 119.193 220.355C120.892 215.235 122.803 209.826 124.572 204.4C125.355 202.098 126.044 199.797 126.756 197.511C127.977 193.596 129.16 189.392 130.279 185.078C132.424 176.882 134.71 167.941 136.331 159.04C137.427 153.011 138.398 146.983 139.188 140.563C139.494 138.074 139.611 135.983 139.862 133.165C140.645 124.177 141.827 115.534 143.22 106.79C142.719 106.868 142.61 107.431 142.375 107.799C142.115 108.171 141.892 108.567 141.709 108.982C141.431 108.164 141.431 107.278 141.709 106.461C141.075 106.461 141.224 107.322 140.699 107.463C140.621 108.066 140.089 108.199 139.862 108.645C138.652 110.321 137.303 111.893 135.83 113.342C135.391 113.82 135.047 114.493 134.319 114.689C135.462 112.231 136.801 109.858 138.179 107.463C139.744 105.404 141.537 103.548 143.22 101.583C143.166 101.231 142.696 101.826 142.547 101.92C141.365 102.335 140.637 103.368 139.69 104.104C139.549 104.222 139.322 104.167 139.188 104.276C139.055 104.386 138.554 104.848 138.179 105.114C137.944 105.279 137.756 105.443 137.505 105.615C137.38 105.709 137.145 105.686 137.004 105.787C136.863 105.889 136.362 106.382 135.994 106.625C135.869 106.711 135.626 106.688 135.493 106.79C135.177 107.095 134.84 107.377 134.483 107.635C134.264 107.76 133.857 107.839 133.646 107.972C132.693 108.678 131.679 109.296 130.616 109.819C132.345 107.583 134.383 105.604 136.668 103.94C136.362 103.697 135.572 104.402 134.984 104.441C135.585 103.805 136.147 103.133 136.668 102.429C136.245 102.21 135.885 102.632 135.493 102.765C134.319 103.149 132.863 103.548 131.626 103.94C129.99 104.543 128.298 105.091 126.584 105.615C127.578 104.59 129.136 104.136 130.115 103.094C130.592 102.899 131.226 102.867 131.461 102.429C130.73 102.421 129.999 102.476 129.277 102.593C127.14 102.906 124.58 103.462 122.231 103.603C123.014 102.992 124.11 102.914 125.081 102.593C126.052 102.272 126.952 101.81 127.938 101.583C129.99 101.098 132.127 100.761 134.327 100.409C134.703 100.174 134.977 99.8296 135.329 99.5713C132.416 99.5165 128.557 99.9627 125.253 100.072C127.731 99.1009 130.331 98.4791 132.98 98.2247C131.414 97.6689 129.559 97.6454 127.774 97.387C125.989 97.1287 124.235 96.792 122.56 96.5493C126.307 96.1856 130.083 96.2407 133.818 96.7137C135.384 96.9016 137.169 97.2696 139.024 97.5514C139.752 97.661 140.347 98.1151 141.373 97.7237C140.576 97.2453 139.731 96.8517 138.852 96.5493C135.673 96.471 132.949 95.9543 129.95 95.7038C130.82 95.4199 131.722 95.2514 132.636 95.2028C131.955 94.8462 131.215 94.618 130.451 94.5295C128.432 94.0362 126.138 93.4413 123.899 93.0185C125.464 92.5488 127.242 93.2612 129.105 93.0185C127.596 92.2659 126.025 91.6476 124.408 91.1709C125.19 90.8421 126.114 91.3509 126.928 91.5075C127.743 91.6641 128.76 91.6406 129.622 91.8442C131.25 92.2278 132.753 93.0107 134.154 93.3551C134.045 92.9324 133.52 92.6975 133.145 92.5174C132.769 92.3374 132.236 92.1965 131.806 92.0086C130.936 91.6038 130.035 91.2687 129.113 91.0065C127.672 90.0357 125.77 89.5268 124.243 88.6578C124.698 88.6209 125.157 88.6768 125.59 88.8222C126.905 89.1354 128.666 89.6051 129.958 90.0044C131.782 90.5837 133.536 91.2413 135.329 91.852C135.65 91.7032 135.149 91.7502 135.164 91.5153C132.816 89.8556 130.686 88.0393 128.439 86.3091C128.745 85.9568 129.481 86.5988 129.786 86.8102C130.099 86.4814 130.404 86.7554 130.796 86.8102C131.078 86.6223 130.107 86.27 129.958 85.9725C129.52 85.7298 129.175 85.401 128.776 85.1348C128.095 84.5241 127.32 84.0153 126.592 83.4516C127.234 83.3185 128.158 84.3128 129.113 84.4615C129.926 84.9091 130.768 85.3014 131.634 85.6358C132.996 86.7945 134.765 87.5696 136.174 88.6578C136.628 88.509 135.791 88.282 135.838 87.9845C135.689 87.6956 135.453 87.4603 135.164 87.3112C134.011 85.7903 132.778 84.3321 131.469 82.9427C131.9 82.6217 132.252 83.3655 132.644 83.616C133.129 83.9605 133.614 84.1405 133.982 84.4615C134.28 84.1562 133.497 83.5064 133.145 83.2793C133.066 82.5747 132.362 82.4965 132.142 81.9406C131.36 81.1577 130.788 80.1556 129.958 79.4197C130.115 78.8795 130.334 79.498 130.459 79.5841C131.802 80.5235 133.093 81.5349 134.327 82.6139C135.736 83.7726 136.832 85.2522 138.351 86.3091C139.604 88.1531 141.07 89.8427 142.719 91.3431C141.803 89.7773 140.731 88.4073 139.697 86.9824C138.664 85.5576 137.959 83.7882 136.675 82.6139C136.527 81.3691 135.681 80.4844 135.164 79.5841C134.611 78.6561 134.107 77.6996 133.653 76.7187C136.131 79.3275 138.389 82.1373 140.402 85.1191C140.739 84.3363 139.752 83.4124 139.901 82.2616C139.447 81.2517 138.946 80.2965 138.554 79.2318C139.032 79.2318 138.766 80.0147 139.392 79.9051C138.995 77.8654 138.49 75.8479 137.881 73.8612C138.48 74.5477 138.938 75.3459 139.228 76.2099C139.697 75.5679 139.118 74.5345 139.055 73.8612C140.018 74.9729 140.324 76.7422 141.24 77.8931C141.326 76.5152 140.856 74.2526 140.739 72.5146C141.271 72.7103 141.091 73.6185 141.576 73.8612C142.085 73.4463 141.451 72.7651 141.576 72.178C142.25 73.1331 142.43 74.3466 142.923 75.7088C143.048 76.0533 143.306 76.3508 143.424 76.7109C143.948 78.3237 143.964 80.1321 144.77 81.5883C145.553 78.4567 145.553 74.3936 146.281 71.1681C146.871 74.0033 147.209 76.8851 147.291 79.7798C147.8 79.8425 147.636 79.2318 147.792 78.9343C147.714 78.4098 148.098 78.3471 147.965 77.76C148.434 76.2725 148.826 74.5736 149.303 73.0626C149.436 72.6477 149.444 71.8648 149.977 71.7161C149.859 74.9572 149.851 78.3158 149.476 81.2908C150.078 81.2203 149.985 80.4609 150.313 80.1165C150.838 79.13 151.253 78.1358 151.824 77.0867C151.989 76.7892 152.051 76.2412 152.498 76.249C152.239 77.3529 152.071 78.4762 151.997 79.6076C153.132 77.5564 154.557 75.7871 155.692 73.7281C155.981 74.8633 154.838 76.0141 154.846 77.4233C155.018 77.8148 155.629 76.6874 155.856 76.4212C155.99 76.174 156.159 75.9472 156.357 75.748C156.569 75.3957 156.827 75.0903 157.031 74.738C157.43 74.5736 157.312 73.9003 157.876 73.9003C157.211 75.5287 156.506 77.1258 155.856 78.7699C156.561 78.6916 156.639 77.987 157.203 77.76C157.25 77.4233 157.657 77.4312 157.704 77.0867C157.853 76.9928 158.44 76.5856 158.04 76.9223C158.463 77.5956 157.618 78.2297 157.367 78.7699C156.71 80.8524 155.574 82.4651 154.682 84.3128C155.144 84.4772 155.144 83.8665 155.355 83.6395C156.004 83.1122 156.569 82.4892 157.031 81.7919C158.573 80.6062 160.032 79.3166 161.399 77.9322C161.626 78.261 161.227 78.7151 161.062 78.9343C160.898 79.1535 160.593 79.4902 160.389 79.7798L159.724 80.7898C159.479 81.2065 159.196 81.5996 158.878 81.9641C158.714 82.1363 158.322 82.794 158.04 83.1384C157.946 83.248 157.774 83.3733 157.704 83.4751C157.485 83.7804 157.398 84.1953 157.203 84.485C157.007 84.7747 156.631 84.986 156.529 85.3227C159.027 83.616 161.368 81.7605 164.257 80.4531C163.474 81.6588 162.025 82.1363 161.399 83.4751C162.38 83.028 163.335 82.5234 164.257 81.9641C164.413 82.5199 162.973 82.9192 162.746 83.6395C162.996 83.4438 163.435 83.4359 163.583 83.1384C163.998 83.4438 163.262 83.6551 163.082 83.8117C162.902 83.9683 162.62 84.3206 162.409 84.485C162.198 84.6494 161.673 84.7825 161.399 84.986C161.125 85.1896 160.961 85.5576 160.726 85.6593C161.149 85.902 161.877 85.0174 162.573 84.986C159.688 87.8889 156.601 90.5836 153.335 93.0498C154.33 92.7425 155.248 92.2275 156.028 91.5388C159.567 90.3488 162.941 88.9396 167.114 88.1802C166.793 88.6969 165.901 88.65 165.603 89.1823C164.867 89.2371 164.538 89.6912 163.92 89.8556C165.392 90.2627 166.918 89.2763 168.617 89.3546C165.945 90.5989 163.194 91.666 160.381 92.5488C163.192 92.7523 165.454 92.0007 168.782 92.2121C166.879 92.8776 164.609 93.1907 162.566 93.7231C163.951 94.0754 165.76 93.9971 167.263 94.2241C161.571 95.3124 154.885 95.3985 149.46 96.745C148.849 96.9799 148.52 97.481 147.777 97.5827C148.153 98.6161 149.703 98.577 150.634 98.5927C152.944 98.6396 156.068 98.1308 158.862 98.256C160.89 98.3703 162.911 98.5951 164.914 98.9293C165.431 99.0233 165.971 99.0076 166.425 99.0937C166.637 99.1407 166.856 99.3912 167.098 99.4304C167.341 99.4695 167.67 99.3755 167.936 99.4304C168.202 99.4852 169.024 99.4304 169.11 99.9392C167.858 100.072 167.106 99.7044 165.924 99.767C165.861 100.276 166.472 100.119 166.762 100.276C167.748 100.519 168.743 100.753 169.784 100.941C169.001 101.442 167.866 100.855 166.926 100.941C166.981 101.395 167.646 101.466 168.108 101.615C168.57 101.763 169.283 101.575 169.283 102.123C165.611 101.701 162.064 101.168 158.322 100.777C159.57 101.38 160.863 101.886 162.19 102.288C163.237 103.028 164.363 103.647 165.548 104.136C164.366 104.386 163.2 103.642 162.018 103.298C161.728 103.212 161.297 103.204 161.008 103.126C160.135 102.822 159.236 102.599 158.322 102.46C159.888 103.368 161.156 104.55 162.691 105.482C161.955 105.662 161.125 105.13 160.342 104.809C159.586 104.536 158.855 104.198 158.158 103.799C157.845 103.799 158.267 104.456 158.495 104.472C157.899 104.474 157.316 104.3 156.819 103.971C155.426 103.29 153.735 102.225 152.278 101.45C152.184 101.943 152.928 103.016 153.124 103.799C153.053 104.417 152.388 103.517 152.114 103.298C151.652 102.922 151.237 102.515 150.94 102.288C150.143 101.632 149.411 100.9 148.755 100.104C148.505 100.245 148.513 100.644 148.419 100.941C147.995 100.575 147.545 100.24 147.072 99.9392C147.588 100.648 148.218 101.267 148.935 101.771C151.097 103.514 153.121 105.422 154.987 107.478C155.026 107.525 155.3 107.604 155.324 107.651C155.809 108.731 157.062 109.788 157.845 110.837C158.338 111.51 158.722 112.332 159.183 113.029C159.761 113.666 160.218 114.404 160.53 115.206C156.723 111.849 153.184 108.2 149.945 104.292C149.726 104.691 150.728 105.294 150.783 105.967C152.137 107.369 152.552 109.694 153.641 111.346C153.865 112.625 154.26 113.868 154.815 115.041C154.306 115.487 154.212 114.086 153.641 114.031C153.444 113.447 153.095 112.926 152.631 112.52C152.177 112.677 152.866 113.045 152.631 113.53C151.065 111.659 150.102 109.224 148.771 107.142C148.701 108.113 148.818 110.336 148.771 111.839C147.816 111.009 147.722 109.303 146.923 108.316C146.978 107.361 146.43 107.017 146.415 106.132C145.812 106.249 146.242 107.408 145.913 107.807C144.997 115.425 144.183 121.641 143.729 129.65C143.596 131.999 143.377 134.026 143.228 136.696C143.119 138.661 142.704 140.61 142.555 142.575C142.453 143.922 142.383 145.378 142.218 146.779C142.116 147.633 141.85 148.431 141.717 149.293C141.42 151.187 141.334 153.152 141.044 155.008C140.754 156.863 140.363 158.797 140.034 160.723C135.916 184.718 128.338 207.093 121.386 228.255C121.761 228.474 122.317 226.979 122.732 226.572C123.061 225.789 123.679 225.28 123.906 224.387C124.572 223.933 124.619 222.861 125.253 222.375C127.923 216.989 130.193 211.329 132.644 205.574C134.303 201.66 135.861 197.84 137.341 193.643C137.764 192.453 138.374 190.637 138.852 189.11C138.852 189.024 139.173 188.672 139.188 188.609C139.235 188.398 139.126 188.14 139.188 187.936C139.415 187.153 139.799 186.527 140.026 185.752C140.253 184.977 140.324 184.053 140.535 183.231C143.33 172.153 145.459 160.198 147.753 148.118C148.881 148.118 149.977 148.118 150.611 148.627C150.118 153.215 149.343 157.709 148.591 162.234C147.111 171.151 145.733 179.997 143.557 188.273C142.477 192.344 141.099 196.227 139.862 200.016C139.462 200.713 139.124 201.444 138.852 202.2C138.75 202.419 138.64 202.756 138.515 203.038C138.304 203.5 137.952 204.525 137.677 205.222C137.051 206.788 136.37 208.683 135.658 210.428C135.431 210.984 135.055 211.548 134.82 212.112C134.702 212.401 134.757 212.84 134.648 213.114C134.452 213.63 134.123 214.061 133.81 214.797C133.027 216.574 132.158 218.829 131.289 220.676C130.256 222.884 129.136 224.92 128.103 227.057C127.437 227.683 127.163 228.701 126.584 229.406C126.153 230.259 125.566 230.971 125.073 231.754C123.092 234.933 120.657 237.642 119.029 241.149C120.822 240.194 121.902 238.534 123.398 237.281C123.914 236.459 124.854 236.06 125.245 235.105C126.147 234.318 126.937 233.412 127.594 232.412C128.071 231.817 128.565 231.277 129.105 230.564C129.645 229.852 130.123 229.398 130.616 228.717C130.718 228.576 130.882 228.333 130.952 228.216C131.454 227.37 132.291 226.305 132.972 225.358C132.972 225.295 133.285 225.241 133.309 225.194C133.332 225.147 133.254 224.927 133.309 224.857C133.614 224.434 134.162 223.988 134.483 223.51C134.601 223.33 134.522 223.307 134.648 223.174C135.192 222.473 135.699 221.744 136.167 220.99C136.406 220.571 136.686 220.178 137.004 219.815C137.427 219.277 137.819 218.715 138.179 218.132C138.708 217.129 139.326 216.175 140.026 215.282C140.167 215.134 140.23 214.914 140.363 214.773C140.496 214.632 140.566 214.413 140.699 214.272C140.833 214.131 141.107 213.333 141.373 212.926C141.639 212.519 141.858 212.386 142.046 212.088C143.682 209.387 145.24 206.537 146.743 203.688C148.943 199.726 150.963 195.679 152.959 191.42C153.68 189.901 154.408 188.233 155.144 186.722C155.253 186.495 155.144 186.535 155.316 186.378C155.51 185.942 155.678 185.495 155.817 185.039C156.968 182.487 158.401 179.559 159.512 176.639C159.645 176.287 159.724 175.856 159.849 175.465C160.436 173.899 161.321 171.887 162.033 170.086C166.37 159.188 170.167 147.727 173.777 135.983C173.894 135.6 174.004 135.201 174.113 134.809C174.16 134.653 174.418 134.402 174.45 134.308C174.481 134.214 174.387 133.838 174.45 133.635C174.692 132.852 175.045 132.069 175.287 131.286C176.853 126.017 178.302 120.122 179.985 114.658C180.486 113.045 180.893 111.432 181.331 109.788C181.77 108.144 182.232 106.656 182.678 105.091C182.905 104.308 182.96 103.36 183.179 102.57C183.179 102.484 183.5 102.131 183.516 102.069C183.563 101.857 183.453 101.599 183.516 101.395C183.516 101.309 183.837 100.957 183.852 100.887C183.899 100.683 183.79 100.425 183.852 100.221C184.126 99.2659 184.557 98.3813 184.854 97.3635C184.972 96.9721 185.066 96.5806 185.191 96.1892C185.536 95.0305 185.919 93.3395 186.373 91.9851C186.694 91.0143 187.156 89.8634 187.548 88.6265C190.797 78.9421 194.656 69.2265 198.461 59.9023C197.713 60.361 197.036 60.9253 196.449 61.5777C196.316 61.7029 196.183 62.2509 195.948 61.9143C196.089 60.4894 196.433 59.2681 196.621 57.8824C197.266 57.0128 197.773 56.049 198.124 55.0249C199.432 54.242 200.262 53.0207 201.655 52.3396C201.804 51.6428 202.18 51.1887 202.328 50.492C193.873 48.4173 184.228 47.5405 174.927 46.2957C172.32 46.2174 176.039 45.9277 176.438 46.2957C176.986 46.4992 176.571 45.7476 177.112 45.959C186.506 45.5989 193.803 47.2978 201.138 48.981C197.067 46.554 191.54 45.5832 186.358 44.2836C187.32 43.9392 188.636 44.6907 189.881 44.6203C190.186 44.4089 189.152 44.1271 188.706 44.1192C189.763 43.8844 190.75 44.4715 191.728 44.7847C192.707 45.0978 193.638 45.4345 194.586 45.7946C196.512 46.5305 198.5 46.922 200.301 47.8145C200.943 47.8145 200.356 47.9476 200.465 48.3155C201.358 48.4643 202.274 49.3646 202.986 49.1532C202.626 48.5034 201.42 48.7304 200.966 48.1511C200.324 48.1511 200.911 48.0102 200.802 47.6422C199.659 47.3291 199.04 46.4914 197.443 46.6323C197.349 46.2643 197.764 46.3974 197.78 46.1313C192.212 43.1309 186.429 40.5481 180.478 38.4041C180.126 38.3102 179.993 37.9892 179.468 38.0675C179.131 37.9188 179.131 37.5038 179.468 37.9031C182.78 38.686 185.434 40.103 188.534 41.0895C187.973 40.6631 187.35 40.3251 186.686 40.0874C183.355 38.4883 179.933 37.0846 176.438 35.8832C176.344 35.7267 175.976 35.6327 176.274 35.5466C178.85 36.5565 181.676 37.3159 184.001 38.5685C190.922 41.2304 196.801 44.9256 203.487 47.8145C203.346 47.1177 203.072 47.0316 202.649 46.9768C202.689 46.7889 202.986 46.8593 202.986 46.6323C199.714 43.1876 195.979 40.197 192.401 37.0576C193.059 36.854 193.967 37.8405 194.586 38.2397C194.813 37.7387 194.171 37.77 193.912 37.5665C193.654 37.3629 193.38 36.9558 193.075 36.7209C192.652 36.4078 192.065 36.1338 191.564 35.7188C191.509 35.6719 191.438 35.4057 191.392 35.3822C190.076 34.7872 188.659 33.2292 187.195 32.5246C187.923 32.4307 188.495 33.2214 189.207 33.699C189.379 33.8164 189.411 33.699 189.544 33.8712C189.677 34.0434 189.912 34.0669 190.053 34.2079C190.463 34.4595 190.856 34.7394 191.227 35.0455C192.576 35.9109 193.865 36.8655 195.087 37.9031C195.549 37.7465 194.703 37.5273 194.75 37.2298C193.098 35.805 191.501 34.3253 189.881 32.8613C188.049 31.1702 186.232 29.4557 184.338 27.8195C184.62 27.749 184.98 28.0152 185.175 28.1561C185.371 28.297 185.739 28.618 186.021 28.8294C186.71 29.3618 187.313 29.9254 188.033 30.5126L188.871 31.1781C189.137 31.3973 189.379 31.546 189.716 31.8514C190.053 32.1567 190.499 32.3289 190.89 32.6969C189.998 30.7866 188.088 29.8941 186.859 28.3284C185.207 27.1775 184.017 25.5648 182.326 24.4609C182.764 24.273 183.242 24.9698 183.664 25.2986C184.087 25.6274 184.8 25.964 185.011 26.4807C185.815 26.9625 186.564 27.5323 187.242 28.1796C187.939 28.7355 188.604 29.26 189.254 29.8628C190.515 31.1295 191.862 32.3066 193.286 33.3858C196.564 36.7679 199.868 40.1291 203.197 43.4694C202.078 41.246 200.121 39.6803 198.5 37.9266C198.07 37.4568 197.764 36.8775 197.326 36.4156C196.198 35.21 194.742 33.9965 193.466 32.7204C190.076 29.3305 186.859 25.7683 183.218 22.6368C183.782 22.3549 184.58 23.6858 185.066 24.1477C185.99 24.3983 186.17 25.4004 187.078 25.6587C190.71 29.1974 194.32 32.7517 197.835 36.4156C197.968 36.1181 197.576 35.7815 197.326 35.4057C196.543 34.2157 195.204 32.4855 194.304 31.2016C194.75 31.0763 195.196 31.9296 195.65 32.3837C196.105 32.8378 196.739 33.2214 196.989 33.7225C197.772 34.0748 197.874 34.3253 198.5 34.568C199.408 36.1338 200.684 37.4882 201.694 38.9365C202.638 40.4749 203.706 41.9334 204.889 43.2972C205.123 42.2168 203.816 41.2382 203.542 40.1108C202.885 39.2782 202.323 38.3749 201.867 37.4177C201.084 36.1494 200.215 34.9125 199.346 33.5581C199.228 33.378 199.134 33.0727 199.009 32.8848C198.743 32.4933 198.531 32.1019 198.163 31.5382C198.015 31.3112 197.803 31.2642 197.662 31.0372C197.412 30.6301 197.255 30.0899 196.989 29.6906C196.723 29.2913 196.269 28.9077 195.987 28.5163C195.823 28.2814 195.807 27.9134 195.65 27.6786C195.494 27.4437 195.275 27.3576 195.142 27.1697L193.466 24.6566C192.339 22.9812 191.345 21.2119 190.108 19.6148C190.155 19.2155 190.562 19.8027 190.609 19.9514C190.81 20.1483 190.979 20.3755 191.11 20.6247C191.36 21.0945 191.893 21.3372 191.955 21.9635C192.985 23.1898 193.934 24.4817 194.797 25.8309C195.783 27.1137 196.683 28.4606 197.49 29.8628C198.762 31.5868 199.939 33.3798 201.013 35.2334C201.593 36.1964 202.148 37.1672 202.696 38.091C203.161 39.0414 203.722 39.9413 204.372 40.7763C204.082 39.1166 203.284 37.9579 203.197 36.079C199.917 28.5006 196.934 20.5856 193.959 12.7254C194.875 14.0485 195.4 15.7708 196.308 17.0939C196.543 17.0078 196.159 16.1309 195.971 15.9196C195.862 15.3794 196.574 15.6847 196.136 15.2463C195.815 14.1189 195.243 13.2264 194.961 12.0521C196.023 14.187 196.977 16.374 197.819 18.6049C197.819 19.2312 198.469 18.6049 198.484 18.9415C199.103 20.061 199.549 21.3528 200.168 22.4723C200.442 19.9045 199.189 17.3992 198.657 15.074C198.993 15.3011 199.033 15.8569 199.158 16.2562C199.775 16.9994 200.235 17.8595 200.512 18.7849C200.88 19.7009 201.139 20.7108 201.522 21.6425C201.71 22.1122 202.031 22.535 202.195 22.9891C202.673 24.3669 203.017 25.9405 203.534 27.3576C204.661 24.6331 203.949 21.5016 203.534 18.1195C203.158 15.0584 202.861 12.2478 202.696 8.87356C203.315 11.2222 203.746 13.7196 204.207 16.2719C204.669 18.8241 204.818 21.4624 205.554 23.8267C205.554 21.7834 205.491 19.3564 205.382 16.9373C205.217 13.3282 205.131 9.55467 205.217 6.36049C205.938 9.89132 206.172 13.9075 206.893 17.4462C207.449 13.5709 207.175 8.87356 207.566 4.84168C207.957 6.61884 207.621 8.18462 207.903 9.88349C208.05 9.69681 208.156 9.48098 208.215 9.25021C208.273 9.01945 208.281 8.77901 208.239 8.54475C208.492 9.30107 208.606 10.0967 208.576 10.8934C208.967 10.729 208.811 9.97743 208.913 9.54684C209.014 9.11626 208.96 8.52909 209.414 8.54475V15.5907C210.142 15.3637 210.04 14.3068 210.259 13.5709C210.69 13.109 210.604 12.1304 210.925 11.5589C211.316 13.2969 210.987 15.7552 211.097 17.775C211.515 16.9875 211.798 16.1354 211.935 15.2541C212.835 12.9054 213.798 10.6116 214.62 8.2081C214.8 12.8037 213.727 17.6028 213.281 22.1514C213.986 21.893 214.127 21.0162 214.455 20.4681C214.526 20.3585 214.729 20.2333 214.792 20.1315C215.646 18.5607 216.601 17.0466 217.65 15.5986C218.871 13.2499 220.515 11.2927 221.682 8.87356C222.37 9.06928 221.548 9.60165 221.682 10.2201C220.531 13.7196 219.591 17.4305 218.323 20.8048C218.738 20.8048 218.84 20.4916 219.161 20.8048C219.161 20.382 219.419 20.2803 219.662 20.1315C220.03 19.7077 220.368 19.2576 220.672 18.7849C221.118 18.4525 221.513 18.0569 221.846 17.6106C222.19 17.2426 222.449 16.632 222.856 16.7729C222.566 17.6576 222.151 18.4248 221.846 19.2938C222.496 19.1607 222.629 18.4718 223.02 18.1195C223.817 17.4636 224.549 16.7321 225.205 15.9352C225.815 15.81 225.69 14.9566 226.387 14.9253C226.035 15.8658 225.583 16.766 225.04 17.6106C225.486 17.7515 225.768 17.0469 226.214 16.6085C227.303 15.5359 228.821 14.2598 229.91 13.0777C230.145 13.5944 229.503 14.0093 229.236 14.4242C229.166 14.5417 229.174 14.7922 229.072 14.9253C228.97 15.0584 228.782 15.0192 228.735 15.0897C228.587 15.3246 228.571 15.6769 228.399 15.9352C228.313 16.0605 228.164 16.1075 228.062 16.2719C227.576 17.1037 227.015 17.8898 226.387 18.6205C225.345 20.6639 223.772 22.167 222.684 24.1634C223.928 23.6702 224.304 22.3079 225.541 21.8147C226.318 20.8956 227.169 20.042 228.086 19.2625C229.917 17.6967 231.851 16.1936 233.628 14.5652C234.043 14.7765 233.127 15.0506 233.127 15.4029C232.705 15.5438 232.595 15.99 232.282 16.2484C231.796 16.8753 231.233 17.4382 230.606 17.9238C229.824 19.3016 228.399 20.0924 227.584 21.4546C228.977 20.5721 230.322 19.6183 231.616 18.597C231.82 19.2547 230.982 19.5443 230.606 19.9436C229.487 21.1101 228.211 22.6759 227.076 23.9755C229.837 21.726 232.629 19.4739 235.453 17.2192C235.867 17.5323 235.202 17.4775 235.116 17.5558C235.03 17.6341 235.077 17.7907 234.951 17.8924C234.685 18.1038 234.31 18.5736 233.942 18.9024C233.754 19.0668 233.472 19.0511 233.268 19.239C232.947 19.5443 232.485 20.202 231.93 20.4133C230.935 21.7208 229.409 22.488 228.399 23.7719C225.886 25.8544 223.506 28.07 221.173 30.3247C223.396 29.1269 225.275 27.5924 227.389 26.2928C229.033 25.3299 230.669 24.5627 232.431 23.6075C232.971 23.31 233.433 22.8246 234.114 22.762C233.668 22.9969 233.534 23.5449 232.932 23.6075C232.885 23.905 233.096 23.952 233.104 23.7719C233.315 24.0538 232.321 24.5548 231.93 24.7819C230.426 25.69 229.135 26.8096 227.725 27.8038C227.553 28.4482 227.203 29.0314 226.715 29.487C227.154 29.6436 228.015 28.8294 228.571 28.4771C228.814 28.3205 229.033 28.2579 229.236 28.1405C230.904 27.1619 232.783 26.2067 234.615 25.2829C235.562 24.9496 236.464 24.4999 237.3 23.9442C237.754 24.1399 236.862 24.3826 236.799 24.6175C236.368 24.6175 236.212 24.9228 235.961 25.1185C233.973 25.9014 232.485 27.1305 230.583 27.9761C231.452 28.2736 232.454 27.2715 233.44 27.1305C234.356 26.6534 235.312 26.2604 236.298 25.9562C234.529 27.0992 232.642 28.1326 230.747 29.1504C231.475 29.3618 232.517 28.4536 233.44 28.3127C232.838 29.0564 231.765 29.3226 231.092 29.9881C231.342 30.2229 232.243 29.6906 232.611 29.487C234.427 29.0173 235.836 28.1248 237.645 27.6394C233.66 29.8706 229.448 31.867 225.549 34.1922C225.854 34.4819 226.575 33.7694 227.232 33.8556C228.883 33.2646 230.563 32.7603 232.266 32.3446C230.098 33.7538 227.663 34.9046 225.385 36.2042C225.682 36.4156 225.987 36.0946 226.222 36.0398C230.489 34.9203 235.327 33.1353 240.166 32.3446C235.664 33.8242 231.029 35.2256 226.52 36.7288C222.168 38.0793 217.97 39.8819 213.994 42.1072C214.516 42.1071 215.032 41.9922 215.505 41.7706C216.875 41.293 218.495 40.6119 219.873 40.0952C222.085 39.648 224.272 39.0862 226.426 38.412C228.96 38.2059 231.482 37.8688 233.981 37.402C232.36 38.2789 230.45 38.5372 228.61 39.0853C226.77 39.6333 225.032 40.3614 223.232 40.7606C225.103 40.8468 227.091 40.2674 229.111 39.9229C231.131 39.5785 233.08 39.281 234.991 38.9208C235.398 39.5158 234.27 39.2653 234.317 39.2497C229.401 40.3379 223.255 41.1286 218.526 42.4438C217.601 42.9489 216.647 43.3985 215.669 43.7904C217.532 44.0957 219.529 43.1641 221.721 42.9449C223.78 42.7492 225.98 42.8744 228.101 42.7805C229.111 42.7335 230.16 42.3656 231.123 42.7805H234.818C235.061 42.7805 235.296 42.7805 235.327 42.9449H234.818C232.157 42.7257 229.636 43.1641 227.091 43.2815C223.737 43.3189 220.395 43.7152 217.125 44.4637C218.871 44.6359 220.695 44.0879 222.668 43.9548C227.718 43.6104 233.174 43.9548 237.958 44.1271H238.631C238.889 44.2132 238.631 44.2993 238.467 44.2915C233.895 44.2915 230.567 44.495 226.199 44.6281C224.719 45.0079 223.193 45.1765 221.666 45.1292C223.482 45.912 226.418 45.5284 228.383 46.1391C227.076 46.601 225.494 45.8964 223.85 46.1391C223.85 46.5697 224.844 46.6088 225.189 46.6401C227.013 46.828 229.15 46.7811 231.068 46.9846C232.986 47.1882 234.709 47.5874 236.447 47.6501C233.127 47.8145 229.401 47.3212 225.698 47.149C220.311 46.8985 214.91 46.4992 210.408 47.6501C210.564 48.2842 211.754 47.8693 212.42 47.9867C220.647 48.5235 228.836 49.5325 236.948 51.0087C234.49 51.1339 232.133 50.3589 229.393 50.0066L224.171 49.3176C219.474 48.7148 213.994 48.3312 208.709 47.971C209.147 48.1511 209.108 48.8087 209.891 48.6443C216.175 48.7816 222.402 49.8582 228.367 51.8385C227.357 52.0264 226.175 51.3923 225.009 51.1652C223.842 50.9382 222.551 50.8364 221.314 50.6564C225.792 51.8385 230.191 53.099 234.584 54.3594C233.662 54.3878 232.745 54.2141 231.898 53.8505C229.409 53.1225 226.316 52.2848 223.662 51.5019C219.983 50.8129 215.888 49.6073 211.739 49.3176C211.308 49.3176 210.799 49.3176 210.392 49.3176C209.343 49.2393 207.879 48.8401 207.034 49.3176C207.175 49.9048 208.239 49.5681 208.545 49.9909C210.471 50.0614 212.232 51.0713 213.923 50.8286C216.522 51.6115 219.043 52.2065 221.478 53.0129C225.283 54.2733 229.393 55.8469 233.409 57.217C232.055 57.4753 230.896 56.7316 229.542 56.207C228.955 55.98 228.109 55.8234 227.193 55.5338C226.113 55.1893 225.095 54.6882 223.999 54.3594C223.709 54.2733 223.279 54.2733 222.989 54.1872C217.768 52.4417 212.438 51.0399 207.034 49.9909C209.187 51.0874 211.435 51.9862 213.751 52.6762C220.462 54.96 227.027 57.653 233.409 60.74C233.409 60.9279 233.237 60.8339 233.237 60.74C231.217 59.9571 229.323 59.0568 227.357 58.2191C223.607 56.8803 220.155 55.2284 216.272 54.0228C219.497 55.8051 222.585 57.8254 225.51 60.0667C224.829 60.1998 224.351 59.5578 223.834 59.229C219.92 56.7551 215.387 54.2498 211.066 52.0029C209.602 51.7289 208.419 51.1731 206.861 50.993C206.948 51.7759 207.871 51.7759 208.372 52.1752C217.07 56.4576 225.502 60.967 232.783 66.6351C232.634 67.1283 232.532 66.2437 232.11 66.4629C232.164 66.0793 231.624 66.2828 231.609 65.9618C228.759 64.0516 225.878 62.1727 222.871 60.419C219.466 58.3913 215.959 56.5045 212.451 54.5395C212.318 55.0249 212.874 54.8761 213.125 55.0405C213.375 55.2049 213.406 55.4163 213.633 55.5494C214.08 55.8078 214.69 55.9487 215.144 56.2227C217.83 57.8501 220.41 59.6438 222.871 61.5933C222.723 62.0944 222.621 61.2097 222.198 61.4289C218.843 58.8768 215.305 56.5741 211.614 54.5395C211.661 54.1402 212.06 54.7352 212.287 54.7117C212.287 54.0776 211.449 54.3203 211.277 53.8662C211.042 53.9288 211.277 54.1637 211.449 54.2028C211.105 54.6413 210.619 53.8114 210.439 53.5296C210.071 53.2869 209.531 53.2007 209.265 52.8641C209.116 53.0911 209.742 53.647 210.103 54.0384C210.463 54.4299 211.081 54.7509 211.277 55.2128C214.728 57.2902 218.039 59.5916 221.188 62.1022C221.775 62.5406 222.41 62.979 223.036 63.4409C223.247 63.5975 223.529 63.6367 223.709 63.7776C223.889 63.9185 224.007 64.2865 224.218 64.4509C224.429 64.6153 224.68 64.6309 224.884 64.7875C225.251 65.0694 225.666 65.3199 226.066 65.6252C226.261 65.7896 226.371 66.1419 226.567 66.2985C226.762 66.4551 227.036 66.4629 227.24 66.6351C227.585 66.9248 227.89 67.3476 228.25 67.6451C229.033 68.287 229.886 68.7959 230.599 69.4927C230.505 69.9781 230.34 69.2343 230.098 69.3204C229.981 69.2791 229.876 69.2128 229.788 69.1263C229.7 69.0397 229.632 68.935 229.589 68.8194C228.422 68.1068 227.3 67.3224 226.23 66.4707C224.79 65.3982 223.239 64.4274 221.862 63.2844C218.824 61.2254 215.99 58.9706 212.96 56.896C213.21 57.5437 213.613 58.1212 214.134 58.5792C214.377 59.7927 215.011 60.6147 215.309 61.7734C213.986 60.5208 212.96 59.002 211.614 57.7415C211.077 56.9995 210.457 56.3218 209.766 55.7216C209.335 54.8683 208.458 54.4612 208.091 53.5374C207.386 53.2021 206.711 52.8094 206.071 52.3631C205.39 53.3808 206.282 55.1267 206.572 56.2305C206.329 57.2794 206.162 58.3442 206.071 59.4169C205.664 59.6283 205.734 60.3094 205.397 60.5991C205.194 61.0062 205.256 61.6873 204.724 61.7734C204.552 60.5521 204.035 59.6596 203.886 58.4148C203.174 58.4148 203.503 59.4795 203.049 59.7535C202.931 60.2982 202.702 60.8126 202.375 61.2645C201.405 64.3961 200.027 67.418 198.845 70.5104C197.662 73.6028 196.598 76.6326 195.486 79.7485C194.374 82.8644 193.137 85.949 192.127 89.1432C187.007 105.075 183.516 122.432 178.521 138.872C176.564 145.323 174.426 151.712 172.305 158.022C166.115 176.297 158.359 194.004 149.123 210.945C148.043 212.769 146.876 214.515 145.929 216.488C145.256 217.365 144.536 218.343 143.917 219.338C143.299 220.332 142.351 221.859 141.568 223.033C139.924 225.421 138.296 227.73 136.534 230.079C136.096 230.65 135.532 231.253 135.016 231.927C134.765 232.247 134.522 232.709 134.178 233.101C134.076 233.226 133.927 233.328 133.841 233.437C133.606 233.743 133.325 234.22 133.004 234.612C132.902 234.737 132.753 234.839 132.667 234.948C132.581 235.058 132.604 235.316 132.495 235.45C132.119 235.919 131.54 236.326 131.156 236.796C130.952 237.047 130.859 237.375 130.647 237.634C129.794 238.738 128.596 240.076 127.625 241.329C125.214 244.633 122.724 247.85 120.579 251.413C121.119 253.761 122.098 256.11 122.262 259.304C122.38 262.44 122.267 265.58 121.926 268.699C118.794 270.265 114.277 270.398 109.83 270.719C104.964 271.027 100.085 271.082 95.2136 270.883C94.235 270.836 93.3268 270.617 92.356 270.546C88.9818 270.312 85.6858 270.116 83.2824 268.863C82.8706 264.433 82.9284 259.972 83.4546 255.554C84.4332 253.401 84.9264 250.763 85.9755 248.673C83.6268 240.28 79.7124 233.453 76.7296 225.656C73.5432 218.093 69.9263 210.961 68.6658 201.464C68.553 201.319 68.4948 201.139 68.5014 200.955C67.468 199.053 66.4737 197.213 65.3072 195.248C65.2446 195.131 65.2368 194.872 65.1428 194.747C65.0489 194.622 64.8375 194.637 64.8062 194.575C64.5087 194.05 64.266 193.448 63.9685 192.899C63.2717 191.623 62.481 190.191 61.7842 188.868C61.6433 188.601 61.5807 188.273 61.4476 188.022C60.8682 186.934 60.1636 185.955 59.6 184.828C59.0363 183.701 58.5979 182.573 58.089 181.469C57.0477 179.254 55.8499 177.054 54.8948 174.752C54.3937 173.562 54.0336 172.278 53.5482 171.057C53.3916 170.65 53.1098 170.211 52.8749 169.71C52.6401 169.209 52.4835 168.27 52.2095 167.526C52.0764 167.182 51.8259 167.033 51.7006 166.688C51.3953 165.819 51.1996 164.794 50.8629 163.831C48.9292 158.351 46.9954 152.009 45.1478 146.028C43.5351 140.783 42.0163 135.028 40.2783 129.728C38.2271 123.465 36.2385 117.202 34.3988 110.743C34.1247 109.796 33.7959 108.833 33.5611 107.893C33.1618 106.328 32.6059 104.668 32.2145 103.016C32.0423 102.311 32.0423 101.521 31.8779 100.832C31.7134 100.143 31.5099 99.6104 31.3768 98.9841C30.1103 93.4006 29.2676 87.7294 28.8559 82.0189C27.8225 82.1598 27.572 83.0836 26.6716 83.3655C24.9258 85.0878 22.7572 86.4187 20.9566 88.0628C20.7608 87.8749 21.3167 87.3817 21.6298 87.0529C22.6487 86.1104 23.6033 85.1008 24.4874 84.0309C26.0278 82.9635 27.3887 81.6581 28.5193 80.1635V78.6525C26.3976 79.224 25.1607 80.6723 23.1408 81.3378C21.6925 82.5278 19.79 83.2559 18.2712 84.3676C17.8641 84.0074 19.0541 83.843 19.1089 83.3576C20.4491 82.5708 21.7383 81.7001 22.9686 80.7506C24.824 79.7485 26.382 78.4489 28.3392 77.5564V75.8732C24.4248 76.4604 21.7316 78.3393 18.4278 79.5685C19.3203 78.6681 20.6669 78.2297 21.622 77.3842C21.1758 77.2354 20.7608 77.5799 20.2833 77.7208C18.8976 78.1279 17.2848 78.6055 15.9147 79.0674C18.765 77.5243 21.7432 76.2303 24.8162 75.1999C25.8518 74.8856 26.862 74.493 27.8382 74.0256C27.4545 73.548 26.8517 74.2605 26.1549 74.0256C26.6168 73.5872 27.6189 73.6968 28.0104 73.1879C27.0553 72.8513 25.9357 73.7986 24.644 73.689C21.4733 74.7145 18.0599 75.5053 14.7326 76.3821C18.3451 74.7162 22.1169 73.4204 25.9905 72.5146C23.3522 72.0605 20.5494 72.8982 17.7624 72.8513C20.4946 71.8335 23.8689 71.4577 27.0005 70.8392C25.1294 70.6905 22.9529 71.0663 20.7843 71.1681C18.2556 71.2933 15.6407 71.309 13.2216 71.5047C17.4674 70.5224 21.7679 69.7931 26.1001 69.3204H27.7833C28.0104 68.2557 27.251 68.2322 26.2724 67.9817C24.1586 67.4415 20.3302 67.5981 17.5353 67.4728C18.3342 67.1514 19.201 67.0356 20.0562 67.1362C19.2733 66.6038 18.3652 66.7917 17.5353 66.6351C16.7745 66.3776 15.9863 66.2095 15.1867 66.1341C14.1361 66.3296 13.1169 66.6667 12.1569 67.1362L9.98045 67.9817C8.18763 68.6628 5.83896 69.7197 3.76431 70.3304C6.97633 68.6743 10.2862 67.2154 13.6757 65.9618C13.6757 65.7661 13.3625 65.8209 13.1668 65.7974C13.1668 65.0145 13.6757 65.8679 14.1767 65.6252C15.5142 65.3421 16.8109 64.8923 18.0364 64.2865C17.2535 63.6915 16.4706 64.2395 15.6877 64.4509C13.339 65.0694 10.7085 66.0166 8.29724 66.6351C10.5285 65.3668 13.5739 64.9049 15.9226 63.7776C15.993 63.3157 15.0066 63.9107 15.0771 63.4409C11.5149 64.0829 7.84316 64.9206 4.32799 65.7896C3.77214 65.9305 3.18497 66.1497 2.64478 66.2907C2.158 66.4498 1.64341 66.5058 1.1338 66.4551C6.95286 64.637 12.9091 63.2913 18.9445 62.431C18.9054 62.0396 18.2712 61.8673 17.9346 61.7577C17.598 61.6481 17.3318 61.609 17.2613 61.5855C16.361 61.335 14.9126 61.1236 13.9027 60.7478C9.85519 61.1784 5.44752 61.2567 1.80708 62.0944C2.11241 61.6246 2.83267 61.6794 3.31806 61.5855C4.9543 61.2802 7.11507 61.1392 9.36979 60.9122C10.1527 60.8339 10.9356 60.6382 11.7185 60.5834C12.1647 60.5442 12.611 60.646 13.065 60.5834C14.4429 60.3798 15.7738 59.871 17.0969 59.7379C17.8835 59.7747 18.6718 59.7196 19.4456 59.5735C19.0228 59.1585 18.3574 58.9785 17.9346 58.5635C13.0176 57.9976 8.07174 57.7205 3.12234 57.7337C2.55083 57.6241 1.55656 57.9529 1.27472 57.5614H3.12234C6.96632 57.5614 12.4309 57.3109 16.0557 58.0703C16.3532 58.0312 16.9012 58.2347 16.729 57.7337C17.6841 58.2895 19.1872 58.2974 20.4242 58.5714C20.1423 57.6476 18.7175 57.7885 17.4022 57.5614C16.9247 57.4832 16.1418 57.5614 16.0557 57.0604C16.635 57.3814 17.778 57.1308 18.4043 57.397C18.4043 56.7629 17.5666 57.0056 17.4022 56.5593C17.0813 56.3166 16.5254 56.3088 16.3923 55.8861C14.9205 55.6199 13.3077 55.4946 12.3604 54.7117C12.0238 54.6491 11.8359 54.7117 11.8594 55.0405C11.3535 54.564 10.7035 54.2693 10.0118 54.2028C7.96842 53.6705 5.67456 53.42 3.45898 53.0285C4.79772 52.6449 6.17561 53.1773 7.49086 53.3652C8.80611 53.553 10.2231 53.6078 11.5227 53.8662C12.149 53.9993 12.7597 54.242 13.3704 54.3751C15.1939 54.675 16.99 55.1228 18.741 55.7138C19.242 55.5729 18.3495 55.4633 18.5766 55.0405C19.6677 55.4836 20.7317 55.9907 21.7629 56.5593C22.217 56.3636 21.3323 56.1209 21.2619 55.8861C20.8313 55.8861 20.6747 55.5729 20.4242 55.3772C19.8216 55.1184 19.2557 54.7815 18.741 54.3751C15.0348 52.3522 11.1575 50.6598 7.15422 49.3176C8.48513 49.1062 10.0352 50.1005 11.6871 50.1553C8.09368 48.4643 4.17924 47.149 0.429199 45.638C1.21209 45.5363 1.8384 46.053 2.61346 46.3113C4.96213 47.0942 7.67092 47.7049 9.65946 48.8244C13.0259 49.7169 15.719 51.2827 18.7253 52.5275C19.0463 52.1438 17.9424 51.7837 17.7232 51.3453C17.2603 51.0298 16.8596 50.6317 16.5411 50.171C11.7968 47.6031 7.25599 44.8082 2.44905 42.2716C2.98802 42.3028 3.50921 42.4757 3.96003 42.7727C5.49091 43.522 7.05869 44.1936 8.65736 44.7847C10.5275 45.96 12.4944 46.9736 14.5369 47.8145C14.9283 47.8145 14.4742 47.3526 14.2002 47.4778C14.1725 47.3701 14.1061 47.2762 14.0137 47.2142C13.9214 47.1521 13.8094 47.1262 13.6992 47.1412C13.5896 46.6323 12.791 46.8124 12.6892 46.3035C10.3014 45.0978 8.2346 43.5947 5.79982 42.436C6.37133 42.2168 6.88021 42.8275 7.48303 43.1093C8.11966 43.3403 8.73739 43.6204 9.33065 43.947C13.0337 45.5597 16.1888 47.7283 19.5787 49.6621C19.9858 49.4507 19.0698 49.1689 19.0698 48.8166C18.4748 48.9105 18.6549 48.2216 18.0599 48.3155C16.3978 46.8795 14.6599 45.5336 12.8536 44.2836C10.505 42.4673 8.09368 40.7528 5.63541 39.0774C6.14429 38.8112 6.70797 39.9229 7.49086 39.9229C7.97619 40.4095 8.54328 40.807 9.16624 41.0973C10.3171 41.8802 11.3975 42.6631 12.5248 43.4459C14.7482 45.0117 16.9012 46.6871 19.0776 48.3155C18.7288 47.7333 18.2748 47.221 17.7389 46.8045C17.4649 46.5697 17.1674 46.3661 16.8934 46.1313C15.7738 45.1683 14.4899 43.8296 13.1981 42.7727C11.2252 41.0033 9.34631 39.1401 7.31079 37.402C7.66309 37.2063 7.90579 37.5899 8.14849 37.7387C8.93137 38.2162 9.81604 38.8504 10.6694 39.4219C11.825 40.0731 12.8975 40.8617 13.8636 41.7706C14.7137 42.2958 15.5016 42.9156 16.2122 43.6182C16.3375 43.72 16.4393 43.8687 16.5489 43.9548C16.6585 44.0409 16.9247 44.0175 17.0578 44.1271C17.1909 44.2367 17.2535 44.5263 17.3944 44.6281C17.5353 44.7299 17.7545 44.6751 17.8955 44.7925C18.5139 45.3327 19.2107 46.1391 19.9153 46.8124C19.9325 46.264 19.7519 45.7277 19.4064 45.3014C18.6235 44.1114 17.1126 42.9527 15.8834 41.6062C15.5703 41.2695 15.3511 40.9407 15.0379 40.5962C14.2942 39.7585 13.4017 38.8269 12.517 37.9109C11.6323 36.9949 10.3641 35.4135 9.15841 34.2157C8.80376 33.9561 8.4664 33.6736 8.14849 33.3702C7.83533 33.0179 7.72573 32.6421 7.48303 32.3681C7.24033 32.0941 5.96422 30.998 6.80975 31.6948C6.96281 31.8265 7.13101 31.9395 7.31079 32.0314C7.86665 32.6969 8.53993 33.2684 9.15841 33.879C9.7769 34.4897 10.411 34.9829 11.006 35.5544C12.2039 36.7131 13.1903 38.0753 14.3725 39.2497C15.5546 40.424 16.8072 41.5122 17.8955 42.7805C18.9192 44.096 20.042 45.3313 21.2541 46.4757C19.1221 43.6276 17.1614 40.6552 15.3824 37.5743C13.7029 34.4312 11.7346 31.4512 9.50288 28.6728C9.84736 28.2814 10.1057 29.4009 10.5128 29.5105C10.7477 30.0037 11.2957 30.1916 11.5227 30.6849C12.47 31.8514 13.5739 32.8769 14.5447 34.0434C15.4103 35.2881 16.3654 36.4682 17.4022 37.5743C15.4685 34.5132 13.7931 31.2094 11.8594 28.1796C12.3448 27.9917 12.47 28.7355 12.6971 29.0173C13.4252 29.9254 14.4507 31.2172 15.218 32.2115C15.5781 32.0001 14.7952 31.5225 14.8813 31.0372C15.6642 31.7809 16.2044 32.8456 17.0656 33.5581C15.9539 30.7945 15.0066 27.8899 13.707 25.3221C14.1298 24.8602 14.4429 25.9249 14.5447 26.332C15.539 27.3497 15.9852 28.9234 17.0656 29.8628C16.4393 28.1326 15.6407 26.5747 15.0457 24.821C16.7923 27.9797 18.3605 31.2338 19.7431 34.568C20.0406 33.1431 19.0463 31.5695 18.9054 30.0272C19.8918 30.998 20.3772 32.4698 21.2541 33.5581C21.198 32.6995 21.0296 31.8519 20.753 31.0372C20.252 28.6024 19.9701 25.3064 19.4064 22.6368C19.8997 22.2375 19.8762 23.3179 20.0797 23.8111C20.432 24.6566 20.8235 25.5882 21.2541 26.6686C22.2816 29.1414 23.1805 31.6657 23.9472 34.2313C24.3308 32.1567 24.002 29.3539 24.1116 27.0053C25.0197 28.7276 25.3564 31.0215 26.2959 32.7204C26.6869 30.5519 26.9665 28.3647 27.1335 26.1676C27.6033 26.2537 27.4467 26.9505 27.6424 27.3419C27.875 26.7542 27.9894 26.1263 27.9791 25.4943C28.5036 25.784 28.3627 26.6217 28.4801 27.1697C28.6871 27.7645 28.8006 28.3877 28.8168 29.0173C29.5057 27.0836 29.6388 24.5861 29.9911 22.3001C30.6096 22.6289 30.2729 23.4666 30.3277 23.9833C30.4843 25.3534 31.1106 28.5163 31.001 30.3639C31.0118 31.3256 31.1247 32.2835 31.3377 33.2214C31.4942 36.353 31.0871 39.6176 31.3377 42.2951C32.0501 42.1698 31.8622 41.1364 32.3398 40.7763C33.3885 38.9489 34.2891 37.0404 35.0329 35.069C35.8628 33.1353 36.857 31.225 37.7182 29.3539C38.0392 29.9098 37.2876 30.8179 37.3816 31.7026C37.8122 31.9375 37.8435 31.0998 38.0549 30.6927C38.341 30.2775 38.5677 29.8242 38.7281 29.3461C39.01 29.7141 38.5324 30.1838 38.3915 30.5283C37.9304 31.8032 37.3675 33.0389 36.7083 34.2235C36.4671 35.5324 36.1322 36.8223 35.7062 38.0832C36.309 38.0205 36.2151 37.2533 36.5439 36.9088C36.6848 36.4313 37.0841 36.2199 37.0449 35.5623C37.5463 34.7511 37.996 33.9091 38.3915 33.0413C39.237 30.8649 40.4348 29.0408 41.4134 26.9974C41.4134 26.8096 41.5857 26.9035 41.5857 26.9974C40.1373 29.9176 38.8221 32.9787 37.3816 35.8989C37.5538 36.2277 38.047 35.4605 38.2271 35.2256C38.415 34.8577 38.7829 34.6698 38.8925 34.2235C38.9357 34.1775 38.9879 34.1409 39.0458 34.1158C39.1037 34.0908 39.1661 34.0779 39.2292 34.0779C39.2923 34.0779 39.3547 34.0908 39.4126 34.1158C39.4705 34.1409 39.5226 34.1775 39.5658 34.2235C39.7302 33.6598 40.2391 33.4406 40.4035 32.8769C40.9359 32.736 40.7793 31.9062 41.4134 31.867C41.3273 32.1175 41.1629 32.2898 41.0768 32.5403C41.5309 32.6656 41.6953 31.9923 41.9223 31.7026C42.7052 30.7083 43.6917 29.4714 44.4354 28.344C44.5607 28.9938 43.8404 29.5183 43.4333 30.1916C43.2454 30.4891 43.0967 30.9041 42.9244 31.1937C42.7522 31.4834 42.4155 31.7731 42.4234 32.2037C41.4448 33.2449 40.8576 34.7089 40.0747 35.8989C40.748 35.6092 40.9829 34.9281 41.4213 34.3879C41.6953 34.0513 42.1259 33.7773 42.4312 33.378C42.8461 32.8378 43.4098 32.0314 43.9422 31.366C44.3415 30.8649 44.7251 30.3717 45.1165 29.855C45.2183 30.403 44.639 30.9589 44.2788 31.5304C43.8525 32.0928 43.5122 32.7155 43.2689 33.378C42.2981 34.3096 41.891 35.8128 40.9202 36.7366C39.6206 39.2497 37.9609 41.3948 36.5517 43.7826C36.7056 44.211 36.7618 44.6684 36.7161 45.1213C37.2563 45.411 37.7808 44.4559 38.0627 43.947C39.5277 42.6698 40.877 41.2656 42.0946 39.7507C43.1671 38.9678 43.9578 37.9188 45.1165 37.2298C45.5124 36.673 46.0289 36.2127 46.6275 35.8832C46.7766 35.5944 47.0119 35.359 47.3008 35.21C47.4495 34.6541 47.8645 35.069 47.3008 35.21C45.367 37.4568 43.3159 39.5237 41.2569 41.7627C40.5558 42.4172 39.9356 43.1531 39.4092 43.9548C38.8342 44.33 38.3695 44.8515 38.0627 45.4658C37.6712 45.8181 36.7239 46.2487 37.225 46.9846C37.4207 47.1647 37.6947 46.828 37.8983 46.6401C38.5675 45.9617 39.1851 45.2342 39.7459 44.4637C42.4155 41.8175 45.2261 39.281 47.8097 36.5644C48.2716 37.0419 47.1129 37.3472 46.9641 37.7387C46.2797 38.5092 45.5504 39.2386 44.7799 39.9229C43.0888 41.8723 41.1003 43.5242 39.4092 45.4658C39.5267 45.8416 39.9103 45.0978 40.2469 45.1292C40.541 44.9267 40.8209 44.7044 41.0846 44.4637C41.6993 44.152 42.2661 43.7539 42.7678 43.2815C42.8931 43.7513 42.3999 44.1349 42.0946 44.4637C41.3297 45.1513 40.6006 45.8777 39.9103 46.6401C39.6285 47.0081 39.0648 47.423 39.237 47.9867C39.926 48.2842 40.5131 47.2508 41.0846 46.8124C41.4999 46.5643 41.8951 46.2842 42.2668 45.9747C42.1259 45.3875 42.5095 45.3249 42.4312 44.7925C42.6582 44.8473 42.5721 45.2153 42.5956 45.4658C42.9244 45.8338 43.4959 45.0352 43.7778 44.7925C44.224 44.91 44.0988 44.448 44.2788 44.2915C44.6624 44.3384 44.913 44.2915 44.9521 43.9548C45.9229 43.5321 46.557 42.7648 47.473 42.2794C49.0388 41.1051 50.9099 40.2283 52.507 39.0853C52.8045 39.2183 51.5284 40.0247 51.1682 40.2596C50.6016 40.6794 49.9799 41.0192 49.3206 41.2695C48.3577 42.1542 47.1442 42.7883 46.1264 43.6182C46.0238 44.4864 45.797 45.3353 45.4532 46.1391C45.9855 46.233 46.5962 45.7007 47.3008 45.3014C49.2591 44.1779 51.2796 43.1663 53.3525 42.2716C53.0472 42.804 52.2408 42.8431 51.8415 43.2737C51.2465 43.2737 52.1938 43.8296 51.6693 43.7826C50.4871 44.5028 49.2423 45.1605 48.1463 45.9669C47.5099 46.2667 46.8905 46.6012 46.2908 46.9689C45.9072 47.4778 45.0461 47.5013 44.9521 48.3077C46.6901 47.9162 47.8723 46.9768 49.485 46.4601C48.7745 47.0247 47.9827 47.4787 47.1364 47.8066C46.385 48.2582 45.5998 48.6509 44.7877 48.981C44.7329 50.0457 43.8091 51.1339 44.1144 52.0029C43.5507 52.4492 43.5742 53.4748 43.2767 54.1872C43.8482 54.4064 44.4041 53.8114 44.9599 53.6861C45.1713 53.6392 45.4218 53.7488 45.6332 53.6861C45.7193 53.6861 46.0716 53.3652 46.1343 53.3495C46.3456 53.3025 46.5962 53.4043 46.8076 53.3495C46.8937 53.3495 47.246 53.0285 47.3086 53.0129C49.0544 52.6214 50.9647 52.1204 52.687 51.6663C53.1803 51.6663 53.3134 51.2827 53.5247 50.993C53.7205 50.946 54.2215 50.2571 54.198 50.993C54.0023 51.0556 53.7753 51.2905 54.0258 51.3296C54.8635 51.4236 53.4621 51.6271 53.3603 51.8385C53.3687 51.877 53.3899 51.9114 53.4205 51.9361C53.4512 51.9608 53.4893 51.9742 53.5287 51.9742C53.568 51.9742 53.6061 51.9608 53.6368 51.9361C53.6674 51.9114 53.6886 51.877 53.697 51.8385C53.7909 52.2613 53.2038 52.7232 52.8515 53.1773C52.4992 53.6313 52.139 54.1246 51.8494 54.5238C52.8358 54.6021 53.3368 53.7409 53.8614 53.3495C54.4527 52.9398 55.0151 52.4899 55.5446 52.0029C55.6855 52.23 55.0592 52.7858 54.6991 53.1773C54.3389 53.5687 53.7283 53.8975 53.5247 54.3594C54.1745 54.5473 55.0044 54.0541 55.208 54.3594C54.9261 54.8057 53.6422 54.2655 53.3603 54.6961C52.6158 55.0933 51.9791 55.6656 51.5049 56.3636C50.9334 56.9821 50.3619 57.5693 49.8217 58.2112C50.8864 58.3208 52.3974 57.992 53.1803 58.3835C51.4188 58.4618 49.0544 57.9451 48.6473 59.3856C50.2131 59.7457 52.3113 59.6439 54.018 59.8945C52.4522 60.1919 50.1818 59.7066 48.1463 59.8945C47.8801 59.9806 48.1463 60.0667 48.3107 60.0589C48.3107 60.2546 48.0054 60.1998 47.8097 60.2311C47.0128 60.887 46.2813 61.6185 45.6254 62.4154C47.3394 62.8146 49.0789 63.0945 50.8316 63.253C53.334 61.8224 55.9137 60.5312 58.5587 59.3856C57.6349 60.3094 56.2962 60.8261 55.3645 61.7342C55.5916 61.9456 56.4527 61.3741 56.8755 61.2254C58.4413 60.646 59.9288 59.9179 61.5728 59.3777C61.4163 59.8944 60.6412 59.7927 60.3985 60.2233C60.328 60.4973 61.0248 60.2233 61.0718 60.051C61.3458 60.4816 60.6021 60.4425 60.3985 60.5599C59.4336 61.1289 58.4378 61.6438 57.4157 62.1022C57.8541 62.5876 58.3708 61.7264 59.0911 61.93C57.6897 62.7677 55.9595 63.2609 54.5582 64.1142C54.8008 64.4822 55.6542 64.2473 55.9047 64.6153C56.1957 64.5604 56.4966 64.6223 56.7424 64.7875C57.0634 64.717 57.3452 64.9049 57.0791 64.9519C55.9908 64.9519 54.9261 64.3726 53.8849 64.4509C53.102 64.5135 52.5931 65.0459 51.8728 65.1242C51.9903 65.4999 52.5774 65.5469 52.8749 65.6252C53.877 65.9149 55.1375 66.1811 56.4058 66.4629C55.5518 66.5268 54.6939 66.4149 53.8849 66.1341C53.0159 65.9149 52.1625 65.6174 51.364 65.4608C48.0697 66.7022 45.0874 68.6503 42.6269 71.1681C44.8973 71.6065 47.3243 70.8236 49.6729 70.667C54.5425 70.3538 59.9914 70.9723 64.6183 71.5047C61.4867 71.9196 57.9168 71.857 54.5425 72.0136C54.6834 72.6555 55.4898 72.6321 56.0535 72.8513C56.535 73.1224 57.0409 73.3478 57.5644 73.5246C55.388 73.6811 52.6479 72.953 50.174 72.8513C49.8373 73.0313 50.8551 73.274 50.8473 73.689C51.2309 73.689 51.8259 74.2605 51.5205 74.3622C48.5612 73.8455 46.0873 72.8513 42.7835 72.6869C43.063 73.4931 43.4005 74.278 43.7934 75.0355C43.8561 75.9515 43.9422 76.8597 43.9578 77.3842C44.9051 79.7329 46.1421 82.0815 47.152 84.4302C47.2381 84.6337 47.4104 84.9078 47.4887 85.1035C48.2716 87.1938 49.2815 89.3546 50.174 91.6484C50.5576 92.6349 50.8159 93.6839 51.1839 94.6782C51.5519 95.6725 52.0373 96.5415 52.3582 97.5279C53.008 99.5634 53.6187 101.779 54.2059 103.916C55.8812 110.007 57.2748 116.959 58.7388 123.567C60.8761 133.212 63.6005 143.139 66.1371 152.635C68.3639 160.902 71.0481 169.038 74.1774 177.007C77.8569 185.908 82.3194 194.865 85.9207 204.22C87.737 208.917 89.4907 213.709 91.1269 218.5C91.9098 220.919 92.6927 223.401 93.6478 225.726C94.6019 227.883 95.7249 229.962 97.0064 231.942C97.8754 230.376 98.4469 228.568 99.3551 227.065C99.4803 225.186 100.193 223.323 100.365 221.358C100.913 215.094 99.6995 208.315 99.6917 202.372C99.6917 201.269 99.8091 200.11 99.864 199.014C100.255 190.261 99.9188 182.049 100.365 173.648C100.482 171.448 100.702 169.209 100.866 167.095C101.015 165.287 101.195 163.494 101.375 161.717C101.931 156.041 102.784 150.545 103.559 145.276C104.342 139.835 105.188 134.606 106.244 129.485C107.301 124.365 108.491 119.457 109.775 114.54C110.73 110.853 111.819 107.377 112.962 103.783C114.003 100.511 115.216 96.6668 116.32 93.1986C118.528 86.317 120.744 79.2005 122.709 71.8648C125.261 62.3605 127.782 52.731 130.436 42.6396C127.907 43.6886 125.112 44.4872 122.709 45.6615C122.341 45.1761 123.445 44.7221 123.546 44.1505C121.667 44.6203 119.898 45.2074 118.003 45.6615C120.16 43.8846 122.788 42.7747 125.566 42.4673C125.731 42.3342 126.2 41.6844 125.903 41.6296C126.866 40.972 128.377 40.8468 130.099 40.9564C126.968 40.2361 122.529 40.7998 118.841 40.6197C118.54 40.7986 118.182 40.8573 117.839 40.7841C119.28 41.246 121.511 40.9172 123.045 41.293C117.275 41.0816 111.38 41.1208 107.254 40.9564C110.38 40.6789 113.524 40.6789 116.649 40.9564C117.244 40.1735 118.904 40.4083 119.843 39.9464C123.044 39.7758 126.254 39.9464 129.418 40.4553C130.076 40.4083 130.804 40.9407 131.101 40.2831C131.148 39.6802 130.365 39.8995 130.091 39.6098C128.948 39.187 127.771 38.7956 126.56 38.4355C128.197 37.9814 129.825 39.876 131.258 39.6098C131.32 38.8269 130.968 39.4689 130.757 38.9443C130.522 39.4297 130.177 38.639 129.747 38.7721C129.794 38.592 130.083 38.6547 130.083 38.4355C126.256 36.3817 122.268 34.6407 118.16 33.2292C119.154 33.0805 120.673 33.8477 121.683 34.2392C125.119 35.3094 128.397 36.8338 131.43 38.7721C131.43 37.7857 130.483 37.817 130.083 37.2611C126.169 34.5445 122.255 31.7809 118.16 29.1974C118.685 29.1426 119.436 29.6749 120.172 30.0351C120.891 30.412 121.634 30.7415 122.395 31.0215C122.341 30.5752 121.957 30.4578 121.558 30.3482C121.088 29.6593 120.196 29.4087 119.538 29.0016C119.475 29.0016 119.428 28.6963 119.374 28.6728C117.432 27.796 115.459 26.285 113.322 25.3064C113.22 24.9071 111.404 24.2886 112.312 24.4687C118.477 27.848 124.425 31.6079 130.123 35.7267C129.653 34.7402 128.76 34.1609 128.275 33.2058C123.178 29.0878 118.144 24.8523 112.656 21.1336C112.938 20.9614 113.189 21.3841 113.322 21.4702C113.455 21.5564 113.666 21.5329 113.831 21.6347C113.995 21.7364 114.559 22.1983 115.005 22.4802C115.122 22.5506 115.381 22.5506 115.506 22.6446C115.826 22.9429 116.164 23.2226 116.516 23.4823C116.696 23.5919 116.86 23.5527 117.017 23.6545C117.495 23.9442 118.246 24.547 118.865 24.9932C120.904 26.331 122.867 27.7816 124.744 29.3383C125.143 29.2913 124.564 28.8842 124.408 28.8372C124.533 28.3753 124.079 28.5006 124.079 28.1639C123.867 28.0345 123.682 27.8639 123.537 27.6622C123.392 27.4605 123.289 27.2319 123.233 26.9896C119.984 24.0303 116.845 20.9535 113.494 18.0882C113.885 18.0412 114.191 18.3465 114.496 18.5892C115.326 19.2312 116.265 20.155 117.189 20.9379C118.486 21.9252 119.72 22.992 120.885 24.1321C121.736 24.7208 122.524 25.3978 123.233 26.1519C124.736 27.4045 126.365 29.2835 128.111 30.5204C128.58 30.3012 127.578 30.1681 127.774 29.6749C127.481 29.5308 127.245 29.2941 127.101 29.0016C125.676 27.6238 124.635 25.8701 123.233 24.4687C121.926 22.12 119.82 20.4916 118.7 17.9159C118.411 17.3679 117.816 17.133 117.526 16.5772C117.181 16.5224 117.197 16.1153 116.853 16.0683C116.774 15.9196 116.704 15.7708 116.516 15.7317C116.516 15.5438 116.68 15.6377 116.68 15.7317C118.367 17.2363 119.938 18.8668 121.378 20.6091C122.02 21.5329 123.061 22.0574 123.562 23.1221C126.85 26.2537 129.222 30.2308 132.135 33.7068C131.201 31.6108 130.015 29.6364 128.604 27.8273C127.343 26.0188 125.997 24.2965 124.736 22.4567C123.476 20.6169 122.129 18.9024 120.877 17.0782L118.857 14.3929C118.183 13.5518 117.568 12.665 117.017 11.7389C121.847 17.0469 125.997 23.0282 130.123 29.0408C129.966 27.9682 129.34 27.3889 129.113 26.3555C128.58 25.6587 128.643 24.3669 128.111 23.6702C125.762 18.7458 123.492 13.6962 121.065 8.71698C121.393 8.19245 121.566 9.2102 121.738 9.39027C122.114 9.52336 121.957 10.1732 122.411 10.228C123.476 12.3574 124.721 14.299 125.942 16.2797C125.908 15.6342 125.735 15.0038 125.433 14.4321C125.308 14.1033 125.237 13.7666 125.096 13.4221C124.603 12.1617 123.711 10.1966 123.249 8.55258C123.037 8.5056 123.084 8.21593 123.249 8.21593C123.202 8.48212 123.413 8.5056 123.421 8.71698C124 9.71908 124.564 10.7368 125.096 11.7389C125.673 12.7436 126.173 13.7905 126.592 14.8705ZM129.113 35.3665C129.421 35.8951 129.894 36.3078 130.459 36.5409C130.749 36.8775 131.43 37.6917 131.806 37.3786C131.109 36.533 130.005 36.0633 129.113 35.39V35.3665ZM205.891 25.1185C205.491 25.1185 205.961 23.3805 205.382 24.1086C205.781 24.1399 205.311 25.8701 205.891 25.142V25.1185ZM205.891 26.6295C205.938 26.4259 205.891 25.5882 205.718 26.1284C205.664 26.3555 205.75 27.1853 205.891 26.653V26.6295ZM206.055 27.9761C206.055 27.796 205.93 27.5376 205.891 27.8038C205.851 28.07 206.016 28.2657 206.055 27.9995V27.9761ZM123.742 31.6948C123.382 31.4834 123.084 31.225 122.732 31.0215C122.763 31.4443 123.672 31.8592 123.742 31.6948ZM128.948 35.2178C128.619 35.1473 128.111 34.3957 127.938 34.7167C128.259 34.8028 128.713 35.6014 128.948 35.2256V35.2178ZM130.796 40.9329C130.663 40.972 130.467 40.9329 130.459 41.0973C130.592 41.066 130.788 41.0973 130.796 40.9329ZM205.045 44.1271C205.045 43.7434 204.481 43.1484 204.372 43.4538C204.669 43.6025 204.654 44.0723 205.045 44.1271ZM44.4432 46.9689C45.1165 46.3505 45.1635 45.1057 45.7898 44.448C45.7898 44.2445 45.7898 43.9705 45.6254 43.9392C44.7877 44.4089 44.3728 46.1861 44.4432 46.9689ZM194.633 43.9392C194.492 44.0566 194.954 44.0957 194.969 44.1114C196.058 44.8708 194.93 43.7121 194.633 43.9548V43.9392ZM190.765 44.6125C189.982 44.1427 190.358 45.1605 190.765 44.6125V44.6125ZM197.49 45.2857C197.248 45.1761 196.159 44.5498 196.48 44.9491C196.77 44.9961 197.357 45.638 197.49 45.3014V45.2857ZM35.714 45.7868C35.761 45.5832 35.714 44.7534 35.5418 45.2857C35.4948 45.5049 35.5731 46.3348 35.714 45.8024V45.7868ZM199.001 45.959C198.61 46.0999 198.273 45.3719 198.156 45.7868C198.336 45.8572 198.798 46.4836 199.001 45.9747V45.959ZM42.7678 46.4601C42.9166 46.1626 43.3863 46.1861 43.4411 45.7868C43.1201 45.8416 42.3294 46.2409 42.7678 46.4757V46.4601ZM42.7678 47.971C42.854 47.7049 43.4176 47.0707 42.9323 46.7967C42.7522 46.9689 42.3059 47.7518 42.7678 47.9867V47.971ZM203.197 48.5347C203.268 47.9397 202.415 47.8693 202.023 47.6892C201.632 47.5091 201.052 46.9063 200.677 47.3526C201.702 47.5326 202.164 48.2999 203.197 48.5347ZM190.601 47.8614C190.867 47.3917 189.873 47.3917 189.928 47.6892C190.161 47.6494 190.4 47.6967 190.601 47.8223V47.8614ZM191.611 47.6892C191.466 47.7199 191.317 47.7211 191.171 47.6929C191.026 47.6646 190.888 47.6075 190.765 47.5248C190.507 47.9945 191.642 47.9241 191.611 47.6501V47.6892ZM192.613 48.1981C192.777 47.5874 191.893 48.0258 191.775 47.6892C191.619 48.2607 192.503 47.8223 192.613 48.1589V48.1981ZM37.726 49.6699C37.9452 49.0436 38.8691 49.1297 38.9004 48.3233C38.9004 48.1276 38.9004 47.8458 38.736 47.8223C38.4933 48.4251 37.225 48.8792 37.726 49.6699ZM193.286 48.3233C194.928 48.4829 196.555 48.7629 198.156 49.161C199.455 49.4272 200.677 49.6229 201.859 49.8343C202.07 49.8735 202.595 50.4293 202.696 49.8343C199.43 48.9924 196.121 48.3208 192.785 47.8223C192.527 48.4173 193.357 47.9241 193.286 48.3233ZM19.2499 48.3233C19.6883 49.3098 20.2754 48.8479 19.2499 48.3233V48.3233ZM33.6942 49.4977C33.5767 49.0827 34.4379 48.8087 33.8664 48.4956C33.9838 48.9105 33.1461 49.1845 33.6942 49.4977ZM148.434 50.171C148.434 49.8187 147.346 49.0671 147.424 49.6699C147.926 49.6699 147.996 50.1005 148.434 50.171ZM34.0308 50.672C34.1247 50.5781 34.4222 49.8891 34.0308 49.8343C33.929 49.9361 33.6394 50.6329 34.0308 50.672ZM206.728 52.3552C205.945 52.0969 206.501 51.5254 206.728 52.3552V52.3552ZM46.4553 55.3772H47.2929C47.8723 55.2206 48.2324 53.9758 48.6395 54.2028C48.7883 54.6099 47.8566 55.0718 48.6395 55.0405C49.9783 55.0405 50.2914 54.0071 50.9882 53.3652C51.7241 53.1459 52.0451 52.5118 52.4992 52.0186C49.2658 52.7075 46.4239 53.7801 43.2611 54.5395C42.9786 54.9972 42.8071 55.5146 42.76 56.0505C43.9735 55.9643 44.8895 55.5807 46.1264 55.5807C46.2282 55.432 46.4787 54.6178 46.6275 55.0718C46.5022 55.0797 46.4553 55.1815 46.4553 55.3772ZM31.3455 53.5296C31.9327 53.3886 32.1284 52.8641 32.3476 52.3552C31.7134 52.4492 31.5804 53.0129 31.3455 53.5296ZM37.8983 52.8641C38.047 53.326 37.9452 54.0384 38.2349 54.3751C38.736 54.2576 38.6029 52.6292 38.5637 52.5275C38.4896 52.6345 38.3899 52.7213 38.2737 52.7801C38.1575 52.8389 38.0284 52.8678 37.8983 52.8641ZM51.3327 55.5807C51.3796 55.2363 51.7867 55.2519 51.8415 54.9074C51.4657 54.7978 50.9099 55.3772 51.3327 55.5807ZM22.4362 56.0818C22.491 55.5259 20.3459 54.9701 20.7608 55.2441C21.2868 55.5757 21.8489 55.8463 22.4362 56.0505V56.0818ZM47.6374 56.9195C47.794 56.348 49.0388 55.98 48.6473 55.4085C48.6473 55.659 48.2402 55.5651 47.9741 55.5807C48.021 56.027 47.3086 56.6611 47.6374 56.8882V56.9195ZM45.962 55.9174C45.5471 56.7003 45.093 57.397 44.6155 58.1016C45.5862 58.2269 45.6567 57.4675 46.1264 57.0917C46.1812 56.6924 46.7136 56.7785 46.6275 56.254C46.8232 56.1992 47.4887 55.6668 46.7997 55.7451C46.6767 55.8236 46.5391 55.8765 46.3952 55.9007C46.2513 55.9249 46.104 55.9199 45.962 55.8861V55.9174ZM42.7678 56.5907V58.266H44.1066C44.3569 57.8529 44.6397 57.4602 44.9521 57.0917C45.0226 56.7081 45.8759 56.2462 45.4532 55.9174C44.5733 56.1909 43.6762 56.4053 42.7678 56.5593V56.5907ZM23.6184 57.0917C24.1977 57.0212 24.55 58.0468 24.9571 57.5928C24.1273 57.1387 23.681 56.2932 22.6084 56.0818C22.538 56.7942 23.5166 56.4889 23.6184 57.0604V57.0917ZM20.5886 57.0917C20.4555 57.2013 20.9018 57.2483 20.9252 57.2639C21.4028 57.4675 20.7608 56.9273 20.6199 57.0604L20.5886 57.0917ZM42.5956 59.6126C43.3785 59.7457 43.5351 59.3151 43.6055 58.7671H42.7678C42.9088 59.2133 42.5408 59.1742 42.5956 59.5813V59.6126ZM43.7778 59.6126C44.5137 59.73 44.6468 59.2525 44.7799 58.7671C44.044 58.6183 43.9109 59.1037 43.7778 59.5813V59.6126ZM22.0996 59.6126C22.0526 59.0411 20.9018 58.6966 20.4242 59.1037C21.0034 59.1783 21.5681 59.3392 22.0996 59.5813V59.6126ZM18.2712 60.0823C18.0285 60.0823 16.8934 60.0197 17.4336 60.2546C18.4425 60.3943 19.469 60.3358 20.4555 60.0823C19.749 59.8315 18.9777 59.8315 18.2712 60.0823ZM42.2981 62.1022C43.3863 61.9613 43.3863 60.7321 43.9735 60.0823C43.7925 60.0871 43.6154 60.029 43.4724 59.9179C43.1749 60.7713 42.5408 61.2254 42.2668 62.1022H42.2981ZM16.4628 60.419C16.7603 60.3798 17.3005 60.5912 17.1361 60.0823C16.7055 60.0354 16.4315 60.1215 16.3923 60.419H16.4628ZM42.9323 60.2781C42.9323 60.1058 42.6426 60.0667 42.5956 60.2781C42.5486 60.4894 42.7835 60.3564 42.9323 60.2781ZM15.3824 60.9435C16.3539 60.9799 17.3156 61.1512 18.2399 61.4524C18.6627 61.5072 19.0228 61.3741 19.4143 61.4524C20.5808 61.6873 21.7629 62.4232 22.9451 61.6168C21.6768 60.1998 17.5275 60.3877 15.3824 60.92V60.9435ZM22.9686 62.1022H22.4597C21.4654 62.1022 22.9686 62.5484 22.9686 62.1022ZM19.61 62.4388C18.741 63.0182 16.9168 62.658 16.2436 63.4409C16.7916 63.347 17.0264 63.5584 17.4257 63.6132C17.6997 63.2139 18.6235 63.4644 18.9367 63.1043C19.5474 62.9869 20.385 63.1043 20.6121 62.6032C20.0797 62.7285 20.0954 62.3136 19.5865 62.4388H19.61ZM20.2833 63.2765C19.7587 63.3705 18.9993 63.2296 18.9367 63.7776C20.1815 63.848 21.0975 63.5897 21.622 62.9399C21.1436 62.9038 20.6663 63.0218 20.2598 63.2765H20.2833ZM42.2903 63.1043C42.2903 63.0103 42.1494 62.9164 42.118 63.1043C42.0867 63.2922 42.2277 63.3 42.2668 63.1043H42.2903ZM46.1499 63.6132C45.461 63.7463 45.2887 63.3548 44.639 63.4409C44.5685 63.8559 45.0461 63.8637 45.3122 63.9498C46.5101 64.3099 47.7235 64.2082 48.6708 64.6153C49.1014 64.2708 49.8295 64.2082 50.0174 63.6132C48.3107 63.6132 46.5727 62.7911 45.14 63.1043C45.3827 63.347 45.8994 63.3313 46.1264 63.6132H46.1499ZM25.967 64.4509C25.2468 63.8872 24.0255 63.8167 23.1095 63.4409C22.8042 63.8637 22.0683 63.8637 21.7629 64.2865C23.8219 64.4117 25.8809 65.4295 27.6503 65.2886C27.2197 64.8815 26.9222 64.3413 25.967 64.4509ZM42.5956 66.2985C42.212 66.5333 42.2042 67.1362 41.7579 67.3084C41.8284 67.8408 40.8341 68.1618 41.2569 68.4827C42.6974 67.3476 44.545 66.6195 46.1264 65.6252C46.8219 65.573 47.4765 65.2763 47.9741 64.7875C46.6588 64.6466 45.6959 64.1534 44.2788 64.1142C43.6204 64.7618 43.054 65.4967 42.5956 66.2985ZM26.3037 65.9618C25.7478 65.8053 25.0276 65.7583 24.4561 65.6252C22.9686 65.2807 21.2619 64.6544 20.0875 64.9519C20.5103 64.5448 19.7509 64.584 19.4143 64.4509C18.5687 64.9519 17.3866 65.1163 16.5567 65.6252C20.2789 65.8127 23.9877 66.2074 27.6659 66.8074C27.6189 66.228 26.7812 66.0949 26.3037 65.9618ZM40.748 69.156C41.0533 69.2108 41.4526 68.8429 41.7579 68.655C42.0632 68.4671 42.9009 68.3183 42.4312 67.9817C41.9536 68.4593 41.1003 68.5532 40.748 69.156ZM31.5099 69.8293H33.0209C33.1461 69.2891 31.3611 69.2891 31.5099 69.8293ZM36.2072 70.5026C35.3852 70.3852 35.0955 70.7923 34.524 70.5026C34.4301 71.0428 36.3247 71.0428 36.2151 70.5026H36.2072ZM34.3596 71.8413H33.6942C33.4984 71.8413 33.2166 71.8413 33.1931 72.0136C33.5376 71.9118 34.297 72.2171 34.3674 71.8413H34.3596ZM32.8565 72.0214C31.7761 71.8257 32.4885 72.5303 32.8565 72.0214V72.0214ZM32.0109 72.1858C31.8857 72.1858 31.6821 72.1858 31.6821 72.358C31.8074 72.3111 32.0109 72.3424 32.0109 72.178V72.1858ZM35.5418 73.1957C35.8628 73.1174 36.5517 73.4228 36.3795 72.8591C36.082 72.9452 35.6827 72.9374 35.5418 73.1879V73.1957ZM36.3795 74.2057C36.2699 74.5971 35.8236 74.6519 35.714 75.0434C35.5261 75.153 34.8372 75.5992 35.2051 75.7166C35.4557 75.2939 35.988 75.1216 36.3795 74.8711C36.6065 74.4249 37.3894 74.5423 37.3894 73.869C36.7631 73.6811 36.9118 74.2761 36.3795 74.1978V74.2057ZM38.5637 74.3701C37.7808 74.9572 37.6634 75.8889 37.225 76.7187C36.7866 77.5486 36.0507 78.6603 35.714 79.4119C35.714 79.4667 35.4165 79.5136 35.3774 79.5763C35.2599 79.7563 35.1895 80.0147 35.0407 80.2496C34.7261 80.7328 34.4461 81.2377 34.203 81.7605C34.203 81.8153 33.9055 81.8701 33.8664 81.9328C33.7411 82.1207 33.6707 82.3868 33.5298 82.6061C33.1973 82.9893 32.9659 83.4494 32.8565 83.9448C32.7312 84.8373 33.1618 86.2935 33.3575 87.64C33.4515 88.2663 33.4202 88.8535 33.5298 89.4877C33.6394 90.1218 33.9369 90.6307 34.0308 91.1709C34.2657 92.5018 34.297 93.7466 34.5318 94.8661C37.0919 106.79 40.795 117.147 44.2788 127.622C48.1933 139.428 51.6145 151.892 55.5368 163.071C58.3921 171.187 61.9331 179.044 66.1214 186.558C65.6752 182.526 64.8297 178.886 64.4382 174.815C65.5734 175.05 66.5207 174.22 66.9591 174.314C68.1726 181.36 69.6209 188.116 70.8188 195.139C76.4634 204.533 81.607 214.476 86.9463 224.207C87.4969 225.253 88.114 226.262 88.7939 227.229C88.9426 227.441 89.0444 228.278 89.4672 227.902C85.3492 215.447 81.2312 202.999 75.8606 191.803C70.8501 180.24 65.7613 168.755 62.5514 155.352C61.4084 151.766 60.6099 147.954 59.6939 144.266C58.1673 138.113 56.5624 131.74 55.161 125.477C52.9219 115.19 51.3796 104.777 47.9349 95.4063C46.3988 90.8705 44.603 86.4268 42.5565 82.0972C42.0251 81.0135 41.5775 79.8907 41.2177 78.7386C41.069 78.3706 40.975 77.8148 40.5444 77.7287C40.8341 78.9656 40.1608 80.2574 40.2078 81.7605C39.6519 82.8331 39.7067 84.5085 39.0335 85.4558C37.8278 82.1442 38.5168 77.5408 39.0335 74.0334C39.0335 73.9316 39.0335 73.8377 38.8612 73.869C38.689 73.9003 38.7125 74.2291 38.5637 74.3701ZM33.0209 74.7067C32.3946 74.7067 31.6665 74.7067 31.8465 75.5444C32.7203 75.2292 33.564 74.8362 34.3674 74.3701C33.8973 74.3573 33.4323 74.4709 33.0209 74.6989V74.7067ZM32.1832 76.7187C32.0892 76.4839 32.8408 76.3116 32.3476 76.2177C32.3632 76.3821 31.6273 76.5543 32.1832 76.7187ZM32.3476 78.903C32.3384 79.7439 32.3959 80.5843 32.5198 81.4161C33.1461 81.3691 32.8565 80.414 33.3575 80.2417C33.5294 79.7163 33.755 79.2099 34.0308 78.7308C34.3814 78.3304 34.6643 77.8756 34.8685 77.3842C35.166 77.1728 35.8001 76.4291 35.5418 76.2099C34.5319 77.165 33.4358 78.0183 32.3632 78.8952L32.3476 78.903ZM140.707 95.876C140.566 95.2889 139.877 95.2497 139.361 95.0305C138.836 94.8598 138.33 94.6368 137.85 94.3651C136.699 94.2789 135.603 93.2534 134.656 93.5195C136.84 94.1302 138.398 95.375 140.707 95.8682V95.876ZM140.707 99.0624C140.159 99.5243 139.048 99.4225 138.523 99.9079C139.877 100.033 140.504 99.4225 141.717 99.399C141.874 98.7884 141.052 99.1563 140.707 99.0546V99.0624ZM106.769 167.957C106.244 167.401 107.184 166.915 106.769 167.957V167.957ZM107.615 182.745C107.395 183.99 107.059 185.399 106.769 186.942C106.511 188.359 106.057 189.901 105.931 191.31C105.587 195.326 106.096 199.765 106.096 204.079C106.096 206.177 106.213 208.244 106.268 210.295C106.323 212.346 106.01 214.578 106.605 216.511C107.388 211.994 108.828 207.023 109.126 201.723C109.486 195.217 108.217 188.68 107.951 182.409C107.951 182.307 107.951 182.205 107.779 182.237C107.607 182.268 107.654 182.487 107.615 182.722V182.745ZM79.728 222.704C82.3037 228.85 84.9577 234.635 87.4552 240.711C87.8623 241.924 88.1519 243.255 88.9661 244.069C89.4124 243.396 89.8665 242.723 90.3049 242.049C88.0423 237.931 86.2652 233.328 83.9243 229.28C82.8204 227.19 81.8027 225.029 80.5657 223.064C79.9942 222.07 79.6419 220.849 78.8825 220.042C78.4837 218.904 77.9191 217.83 77.2071 216.856C77.9491 218.846 78.7905 220.798 79.728 222.704Z" fill="#2B1105"/>
</svg>
