<svg width="200" height="101" viewBox="0 0 200 101" fill="none" xmlns="http://www.w3.org/2000/svg">
<path d="M26.9402 30.0112C28.6378 30.7841 30.2404 32.398 31.1017 34.9148C33.4207 41.6912 40.8313 46.3087 47.2531 42.7997C49.7975 41.4094 54.1873 42.9124 55.8414 47.7469C58.1602 54.5232 65.5709 59.1407 71.9931 55.632C72.6488 55.2734 73.4271 55.1073 74.2499 55.1407V59.962C71.7793 59.18 69.0886 59.2978 66.5523 60.684C64.008 62.0744 59.6181 60.5715 57.964 55.737C55.6446 48.9605 48.2341 44.3429 41.8123 47.8519C39.2679 49.2422 34.8783 47.7392 33.224 42.9048C32.0979 39.6143 29.7712 36.8327 26.9402 35.2436V30.0112Z" fill="#2B1105"/>
<path d="M31.4604 26.6196C33.5459 28.251 35.2187 30.5606 36.1209 33.1969C37.7753 38.0314 42.1649 39.5344 44.7092 38.1441C51.1311 34.635 58.5416 39.2526 60.8604 46.029C62.515 50.8634 66.9044 52.3664 69.4493 50.9761C71.0196 50.1179 72.6498 49.7457 74.2498 49.7725V26.6196H31.4604Z" fill="#2B1105"/>
<path d="M26.9402 42.145V47.2555C28.3858 48.7378 29.5377 50.5744 30.2326 52.6049C31.887 57.4392 36.2766 58.9421 38.8209 57.5522C45.2428 54.0429 52.6535 58.6604 54.9724 65.4371C56.6266 70.2715 61.0165 71.7745 63.5608 70.384C67.1714 68.4111 71.0945 69.0074 74.2499 71.1113V65.7702C72.4849 64.6869 70.5067 64.5681 69.0961 65.3389C62.6738 68.8482 55.2632 64.2307 52.9444 57.454C51.29 52.6198 46.9004 51.1168 44.3561 52.5071C37.9342 56.0164 30.5236 51.3986 28.2046 44.6222C27.878 43.6677 27.4448 42.8431 26.9402 42.145Z" fill="#2B1105"/>
<path d="M54.8722 73.9295C52.6666 72.2897 50.8923 69.8993 49.9531 67.155C48.2987 62.3205 43.9091 60.8171 41.3647 62.2075C36.107 65.0807 30.1866 62.5062 26.9402 57.7598V73.9295H54.8722Z" fill="#2B1105"/>
<path fill-rule="evenodd" clip-rule="evenodd" d="M94.4685 36.6992C96.8876 36.6992 99.0005 37.0536 100.808 37.762C102.616 38.4705 104.119 39.4476 105.316 40.6935C106.512 41.9152 107.405 43.3199 107.99 44.9078C108.602 46.4716 108.907 48.096 108.907 49.7818V50.5879C108.907 52.2004 108.602 53.7882 107.99 55.3522C107.405 56.9156 106.512 58.3325 105.316 59.6031C104.119 60.8731 102.616 61.8874 100.808 62.6445C99.0005 63.402 96.8876 63.7808 94.4685 63.7808H84.7942V36.6992H94.4685ZM94.7984 58.9431H89.9979V41.5365H94.7984C96.191 41.5365 97.4249 41.732 98.4998 42.1229C99.599 42.5138 100.527 43.0878 101.285 43.8452C102.042 44.6027 102.616 45.5186 103.007 46.5936C103.422 47.6443 103.63 48.8412 103.63 50.1848C103.63 51.4798 103.422 52.6646 103.007 53.7394C102.616 54.7898 102.042 55.706 101.285 56.488C100.527 57.2699 99.599 57.8805 98.4998 58.3203C97.4249 58.7357 96.191 58.9431 94.7984 58.9431Z" fill="#2B1105"/>
<path d="M112.761 61.9851C114.031 63.4997 115.815 64.2573 118.111 64.2573H118.331C119.87 64.2573 121.153 63.9151 122.179 63.2308C123.205 62.5469 123.974 61.5332 124.487 60.1894C124.629 59.818 124.751 59.4212 124.854 58.9995V63.6339H128.885V43.6987H123.791V55.4621C123.791 56.757 123.413 57.783 122.655 58.5406C121.922 59.2976 120.969 59.6764 119.796 59.6764C118.624 59.6764 117.696 59.322 117.011 58.6133C116.327 57.8806 115.986 56.9034 115.986 55.6817V43.6987H110.892V55.2419C110.892 58.2228 111.515 60.47 112.761 61.9851Z" fill="#2B1105"/>
<path d="M132.904 63.634V43.7353H136.935V48.6398C137.053 48.129 137.2 47.6547 137.375 47.2167C137.913 45.8488 138.706 44.8224 139.757 44.1386C140.832 43.4545 142.164 43.1123 143.751 43.1123H143.971C146.341 43.1123 148.136 43.8819 149.358 45.4211C150.579 46.9356 151.19 49.2079 151.19 52.2373V63.634H146.097V51.7975C146.097 50.5759 145.742 49.5866 145.034 48.8292C144.35 48.0718 143.397 47.6931 142.175 47.6931C140.929 47.6931 139.915 48.084 139.134 48.8657C138.376 49.6232 137.998 50.6492 137.998 51.9441V63.634H132.904Z" fill="#2B1105"/>
<path fill-rule="evenodd" clip-rule="evenodd" d="M159.231 63.4511C160.527 64.0373 162.029 64.3306 163.739 64.3306C165.376 64.3306 166.83 64.0495 168.1 63.4877C169.395 62.9259 170.457 62.1317 171.288 61.1057C172.119 60.0797 172.681 58.8824 172.974 57.5142H168.283C168.063 58.2473 167.562 58.8702 166.781 59.3832C165.999 59.8717 164.985 60.1163 163.739 60.1163C162.493 60.1163 161.467 59.8473 160.661 59.3099C159.855 58.7481 159.256 57.9906 158.865 57.0378C158.605 56.3885 158.432 55.6802 158.344 54.9126H173.304V53.0802C173.304 51.3212 172.937 49.6844 172.204 48.1695C171.472 46.6306 170.372 45.3968 168.906 44.4685C167.465 43.5157 165.669 43.0391 163.519 43.0391C161.882 43.0391 160.441 43.3323 159.195 43.9187C157.949 44.4806 156.899 45.2502 156.044 46.2273C155.213 47.1803 154.578 48.2796 154.138 49.5256C153.723 50.7469 153.515 52.0175 153.515 53.337V54.033C153.515 55.3036 153.723 56.5492 154.138 57.771C154.578 58.9922 155.213 60.1041 156.044 61.1057C156.899 62.0829 157.961 62.8649 159.231 63.4511ZM158.432 51.7976C158.529 51.2378 158.674 50.7246 158.865 50.2584C159.09 49.7297 159.368 49.2691 159.7 48.8761C159.981 48.5428 160.302 48.2584 160.661 48.0229C161.442 47.51 162.395 47.2536 163.519 47.2536C164.643 47.2536 165.571 47.4978 166.304 47.9864C167.062 48.4749 167.624 49.1712 167.99 50.0752C168.082 50.3029 168.163 50.5423 168.232 50.7933C168.266 50.9148 168.296 51.0389 168.324 51.1658C168.369 51.3694 168.407 51.58 168.438 51.7976H158.432Z" fill="#2B1105"/>
</svg>
