<svg width="184" height="79" viewBox="0 0 184 79" fill="none" xmlns="http://www.w3.org/2000/svg">
<path d="M66.5078 26.4947V21.4375H91.9519V26.4947H82.1306V56.4294H76.431V26.4947H66.5078Z" fill="#2B1105"/>
<path d="M107.537 51.8322L108.962 51.679L109.064 55.8168C105.197 56.6001 101.77 56.9915 98.7845 56.9915C95.0187 56.9915 92.3049 55.9528 90.6427 53.8756C89.0141 51.7981 88.1997 48.4777 88.1997 43.9143C88.1997 34.8555 91.8808 30.3262 99.2426 30.3262C106.367 30.3262 109.929 34.2255 109.929 42.0241L109.573 46.0087H93.7974C93.8315 48.1199 94.2893 49.6696 95.1716 50.6571C96.0534 51.6449 97.6992 52.1386 100.108 52.1386C102.517 52.1386 104.993 52.0363 107.537 51.8322ZM104.484 41.7177C104.484 39.1978 104.077 37.4439 103.263 36.4561C102.482 35.4345 101.142 34.9236 99.2426 34.9236C97.3429 34.9236 95.9519 35.4515 95.0696 36.5072C94.2215 37.563 93.7806 39.2997 93.7468 41.7177H104.484Z" fill="#2B1105"/>
<path d="M112.719 56.4296V30.8881H118.215V33.9531C121.098 32.08 123.982 30.8711 126.866 30.3262V35.8942C123.948 36.4732 121.454 37.2225 119.385 38.1418L118.266 38.6018V56.4296H112.719Z" fill="#2B1105"/>
<path d="M128.562 56.4296V30.8881H134.058V33.9531C136.941 32.08 139.825 30.8711 142.709 30.3262V35.8942C139.791 36.4732 137.297 37.2225 135.228 38.1418L134.108 38.6018V56.4296H128.562Z" fill="#2B1105"/>
<path d="M163.233 38.755V50.402C163.267 51.1512 163.454 51.7131 163.793 52.0877C164.166 52.4282 164.726 52.6496 165.472 52.7514L165.32 56.9915C162.402 56.9915 160.146 56.3614 158.551 55.1013C155.837 56.3614 153.106 56.9915 150.358 56.9915C145.304 56.9915 142.776 54.2843 142.776 48.8695C142.776 46.281 143.454 44.408 144.812 43.2502C146.202 42.0923 148.323 41.394 151.172 41.1558L157.737 40.5939V38.755C157.737 37.3926 157.432 36.4391 156.821 35.8942C156.244 35.3493 155.379 35.0769 154.226 35.0769C152.055 35.0769 149.341 35.2131 146.083 35.4856L144.455 35.5877L144.252 31.6543C147.95 30.7689 151.342 30.3262 154.429 30.3262C157.551 30.3262 159.79 31.0073 161.147 32.3695C162.538 33.6977 163.233 35.8261 163.233 38.755ZM151.834 45.0891C149.493 45.2936 148.323 46.5706 148.323 48.9204C148.323 51.2703 149.357 52.445 151.427 52.445C153.123 52.445 154.921 52.1727 156.821 51.6277L157.737 51.3212V44.5272L151.834 45.0891Z" fill="#2B1105"/>
<path fill-rule="evenodd" clip-rule="evenodd" d="M51.1136 18.5054C55.5417 18.5054 59.2364 21.6464 60.0908 25.822C60.2128 26.4185 60.277 27.0361 60.277 27.6687V51.1269C60.277 56.1876 56.1744 60.2902 51.1136 60.2902H27.6555C26.6536 60.2902 25.6893 60.1293 24.7869 59.8324C21.1312 58.6284 18.4922 55.1859 18.4922 51.1269V27.6687C18.4922 22.6079 22.5948 18.5054 27.6555 18.5054H51.1136ZM47.397 21.4376H51.1136C54.1504 21.4376 56.6798 23.6101 57.2326 26.4856C55.4692 26.6854 53.4532 26.5003 51.3244 25.588C49.4382 24.7795 48.1869 23.2817 47.397 21.4376ZM38.6966 21.4376H44.2661C45.1916 24.2231 46.9641 26.9095 50.1695 28.2832C52.7407 29.3851 55.1825 29.6407 57.3447 29.426V32.4222C54.4091 33.3515 51.4838 33.7276 49.1432 33.0425C47.9805 32.7022 46.6463 31.7987 45.2106 30.3775C43.7947 28.9757 42.3817 27.1727 41.0475 25.2019C40.2184 23.9772 39.4289 22.7015 38.6966 21.4376ZM35.329 21.4376H31.4489C31.6257 24.7558 30.8439 28.8087 27.9356 32.9145C26.0088 35.6347 23.7303 37.1308 21.4245 37.799V43.6448C22.8138 42.8011 24.4495 41.6487 26.3645 40.0928C30.8894 36.4162 34.4532 34.9535 37.1557 34.6859C39.8424 34.4199 41.7524 35.3519 42.5936 36.5298C43.4769 37.7664 43.9761 39.4235 44.1642 41.1711C44.3544 42.94 44.2386 44.913 43.7921 46.8711C42.9055 50.7636 40.6539 54.8153 36.5977 56.9995C36.3769 57.1186 36.154 57.2381 35.9293 57.358H40.4871C42.2695 55.095 43.6961 52.8467 44.2078 51.0847C44.7851 49.0956 45.0222 46.9869 45.2436 45.0157L45.244 45.0153V45.0146C45.3235 44.3068 45.4012 43.6162 45.4917 42.9554C45.649 41.8103 45.866 40.5971 46.3318 39.7222C46.5785 39.2593 46.9703 38.7439 47.6008 38.4463C48.2646 38.1329 48.9555 38.1714 49.5614 38.3733C51.2599 38.9396 53.5177 39.0569 57.3447 38.0981V35.4827C54.3934 36.3143 51.1756 36.6926 48.3192 35.8567C46.4763 35.3173 44.7268 34.0246 43.1478 32.4613C41.5489 30.8785 40.0161 28.9085 38.6196 26.8458C37.4251 25.0815 36.313 23.2234 35.329 21.4376ZM57.3447 41.1139C53.6988 41.9485 51.077 41.9137 48.8595 41.2275C48.6956 41.6113 48.5428 42.2916 48.3969 43.3542C48.3243 43.882 48.2572 44.482 48.1843 45.1308V45.1311C47.9578 47.1529 47.6781 49.6479 47.0235 51.9021C46.5221 53.6299 45.4371 55.5282 44.1477 57.358H47.0975C47.6418 56.0047 48.1429 54.716 48.5365 53.6329C48.9595 52.4688 49.2242 51.6316 49.3096 51.2057C49.4712 50.3967 49.7795 49.5262 50.5026 48.9094C51.2548 48.2672 52.1784 48.1294 53.0438 48.1734C53.896 48.217 54.8952 48.4464 56.0223 48.7697C56.4321 48.887 56.8726 49.0211 57.3447 49.1703V41.1139ZM57.2494 52.2188C56.4841 51.9703 55.8104 51.7595 55.2137 51.5884C54.1247 51.2757 53.3942 51.1273 52.895 51.102C52.5724 51.0855 52.442 51.1254 52.4046 51.1419C52.3833 51.1668 52.2792 51.3087 52.185 51.7808C52.0501 52.4545 51.7089 53.4881 51.2925 54.6342C50.9938 55.4567 50.6386 56.3841 50.2541 57.358H51.1136C54.1826 57.358 56.7333 55.1393 57.2494 52.2188ZM29.6025 57.358C31.5227 56.3676 33.4609 55.3582 35.2075 54.4176C38.2989 52.7532 40.1708 49.5662 40.9332 46.2197C41.3118 44.5582 41.402 42.9114 41.2487 41.4848C41.093 40.0367 40.6989 38.922 40.2074 38.2341C40.1327 38.1292 39.3853 37.4119 37.4445 37.604C35.5193 37.7946 32.4856 38.8975 28.2136 42.3686C25.5394 44.5414 23.3015 46.0299 21.4245 47.014V50.3209C21.8872 49.8975 22.4097 49.5438 22.8925 49.2422C23.3845 48.9346 23.9205 48.6323 24.4473 48.3368L24.5778 48.2635C25.0699 47.9879 25.5583 47.7141 26.0433 47.4238C27.1042 46.7882 28.0582 46.1244 28.7918 45.3521C30.0618 44.015 31.8949 42.4195 33.6184 41.3302C34.4686 40.7925 35.3868 40.3171 36.2531 40.099C37.0662 39.8941 38.3267 39.8109 39.2053 40.8152C40.0414 41.7707 40.3878 43.2039 39.7789 45.064C39.2006 46.8311 37.748 49.0618 34.9402 51.9633C32.0258 54.9748 29.1113 56.4834 26.6541 56.9643C26.377 57.0185 26.1043 57.0596 25.8372 57.0886C26.4124 57.2638 27.023 57.358 27.6555 57.358H29.6025ZM21.4245 34.6966C22.8451 34.1074 24.2604 33.03 25.5428 31.2196C28.0749 27.6449 28.6868 24.1786 28.5125 21.4376H27.6555C24.2142 21.4376 21.4245 24.2274 21.4245 27.6687V34.6966ZM52.4016 51.1434C52.3947 51.1467 52.3917 51.1489 52.3921 51.1489C52.3925 51.1492 52.3939 51.1485 52.3965 51.1467L52.3983 51.1456L52.4016 51.1434ZM35.1851 43.8087C33.7085 44.7419 32.0593 46.1699 30.9178 47.3717C29.9105 48.4321 28.6882 49.2576 27.55 49.9393C27.0269 50.2523 26.5023 50.5463 26.0162 50.819L25.8815 50.8945C25.3487 51.1932 24.871 51.4634 24.4466 51.7287C23.5313 52.3005 23.1487 52.6854 23.0288 52.9313C22.9944 53.0021 22.9903 53.0424 23.001 53.104C23.016 53.1919 23.0791 53.3946 23.3303 53.7293L23.3547 53.7619L23.3772 53.7956C23.3786 53.7975 23.4117 53.8433 23.5166 53.9074C23.625 53.9738 23.7927 54.0485 24.031 54.1072C24.5099 54.2252 25.207 54.2593 26.0911 54.0863C27.8491 53.7425 30.2495 52.5938 32.8331 49.9239C35.5234 47.1441 36.6177 45.2953 36.9922 44.1521C37.215 43.4711 37.1692 43.1024 37.0981 42.914C37.0622 42.9206 37.0197 42.9297 36.9695 42.9425C36.546 43.0492 35.9348 43.3347 35.1851 43.8087ZM37.2557 42.9C37.255 42.9011 37.2462 42.9011 37.2315 42.8982C37.2488 42.8978 37.2565 42.8993 37.2557 42.9Z" fill="#2B1105"/>
</svg>
